<?xml version="1.0" encoding="UTF-8" standalone="no"?>
<!-- Created with Inkscape (http://www.inkscape.org/) -->
<svg id="svg2985" xmlns:rdf="http://www.w3.org/1999/02/22-rdf-syntax-ns#" xmlns="http://www.w3.org/2000/svg" height="330" width="330" version="1.1" xmlns:cc="http://creativecommons.org/ns#" xmlns:dc="http://purl.org/dc/elements/1.1/">
 <metadata id="metadata2991">
  <rdf:RDF>
   <cc:Work rdf:about="">
    <dc:format>image/svg+xml</dc:format>
    <dc:type rdf:resource="http://purl.org/dc/dcmitype/StillImage"/>
    <dc:title/>
   </cc:Work>
  </rdf:RDF>
 </metadata>
 <path id="path2995" fill="#000" d="m40,255,0-35,35,0,35,0,0,35,0,35-35,0-35,0,0-35zm60,0,0-25-25,0-25,0,0,25,0,25,25,0,25,0,0-25zm-40,0,0-15,15,0,15,0,0,15,0,15-15,0-15,0,0-15zm60,10,0-25,5,0,5,0,0-5,0-5-5,0-5,0,0-25,0-25,10,0,10,0,0,5,0,5,5,0,5,0,0-5,0-5,10,0,10,0,0,5,0,5-5,0-5,0,0,5,0,5,10,0,10,0,0-5,0-5,5,0,5,0,0-5,0-5,5,0,5,0,0-5,0-5,5,0,5,0,0-5,0-5,10,0,10,0,0-5,0-5,5,0,5,0,0-5,0-5,10,0,10,0,0,5,0,5-5,0-5,0,0,10,0,10,5,0,5,0,0-5,0-5,10,0,10,0,0-5,0-5-5,0-5,0,0-15,0-15,5,0,5,0,0,10,0,10,5,0,5,0,0,15,0,15-5,0-5,0,0,5,0,5,5,0,5,0,0,10,0,10-5,0-5,0,0-5,0-5-5,0-5,0,0-10,0-10-5,0-5,0,0,15,0,15,5,0,5,0,0,10,0,10,10,0,10,0,0,10,0,10-10,0-10,0,0,5,0,5,10,0,10,0,0,20,0,20-30,0-30,0,0-15,0-15-5,0-5,0,0-5,0-5-5,0-5,0,0,5,0,5-5,0-5,0,0-5,0-5-10,0-10,0,0,5,0,5,5,0,5,0,0,15,0,15-10,0-10,0,0-5,0-5-10,0-10,0,0,5,0,5-15,0-15,0,0-25zm30,10,0-5,5,0,5,0,0-5,0-5,5,0,5,0,0-5,0-5-5,0-5,0,0-5,0-5,20,0,20,0,0-10,0-10-5,0-5,0,0-5,0-5,5,0,5,0,0-5,0-5,5,0,5,0,0-5,0-5-5,0-5,0,0,5,0,5-10,0-10,0,0,10,0,10,5,0,5,0,0,5,0,5-10,0-10,0,0-5,0-5-5,0-5,0,0-5,0-5-5,0-5,0,0-5,0-5-5,0-5,0,0-5,0-5-5,0-5,0,0,20,0,20,5,0,5,0,0,5,0,5-5,0-5,0,0,5,0,5,15,0,15,0,0,5,0,5-15,0-15,0,0,10,0,10,10,0,10,0,0-5zm0-40,0-5,5,0,5,0,0,5,0,5-5,0-5,0,0-5zm30,40,0-5-5,0-5,0,0,5,0,5,5,0,5,0,0-5zm100-5,0-10-5,0-5,0,0,5,0,5-5,0-5,0,0-10,0-10-5,0-5,0,0,5,0,5-5,0-5,0,0-5,0-5-5,0-5,0,0,5,0,5,5,0,5,0,0,5,0,5,10,0,10,0,0,5,0,5,10,0,10,0,0-10zm-40-45,0-15-15,0-15,0,0,15,0,15,15,0,15,0,0-15zm-20,0,0-5,5,0,5,0,0,5,0,5-5,0-5,0,0-5zm50,10,0-5-5,0-5,0,0,5,0,5,5,0,5,0,0-5zm-10-30,0-5-5,0-5,0,0-5,0-5-5,0-5,0,0-5,0-5,5,0,5,0,0-5,0-5-5,0-5,0,0-5,0-5-5,0-5,0,0,5,0,5-10,0-10,0,0,5,0,5,5,0,5,0,0,5,0,5,5,0,5,0,0,5,0,5,10,0,10,0,0,5,0,5,5,0,5,0,0-5zm-30-30,0-5,5,0,5,0,0,5,0,5-5,0-5,0,0-5zm-30,100,0-5,10,0,10,0,0,5,0,5-10,0-10,0,0-5zm-160-85,0-20,5,0,5,0,0-10,0-10-5,0-5,0,0-15,0-15,25,0,25,0,0,5,0,5-20,0-20,0,0,5,0,5,5,0,5,0,0,10,0,10,5,0,5,0,0-5,0-5,5,0,5,0,0-5,0-5,25,0,25,0,0,10,0,10,10,0,10,0,0,5,0,5-15,0-15,0,0-10,0-10-10,0-10,0,0,5,0,5,5,0,5,0,0,5,0,5-5,0-5,0,0,5,0,5,5,0,5,0,0,5,0,5-5,0-5,0,0,5,0,5,5,0,5,0,0,5,0,5-5,0-5,0,0-5,0-5-10,0-10,0,0-5,0-5,10,0,10,0,0-5,0-5-10,0-10,0,0-5,0-5-5,0-5,0,0,5,0,5-5,0-5,0,0-5,0-5-5,0-5,0,0,20,0,20-5,0-5,0,0-20zm20,15,0-5,5,0,5,0,0,5,0,5-5,0-5,0,0-5zm100-45,0-10,5,0,5,0,0,5,0,5,5,0,5,0,0-5,0-5,5,0,5,0,0-5,0-5,5,0,5,0,0-5,0-5,5,0,5,0,0-5,0-5,5,0,5,0,0,5,0,5-5,0-5,0,0,5,0,5,5,0,5,0,0,5,0,5-15,0-15,0,0,10,0,10-15,0-15,0,0-10zm-20-20,0-10-20,0-20,0,0-5,0-5,15,0,15,0,0-5,0-5-5,0-5,0,0-10,0-10,5,0,5,0,0-5,0-5-5,0-5,0,0-5,0-5,15,0,15,0,0,5,0,5-5,0-5,0,0,10,0,10,5,0,5,0,0-5,0-5,10,0,10,0,0,10,0,10-5,0-5,0,0,10,0,10,5,0,5,0,0-5,0-5,10,0,10,0,0-5,0-5-5,0-5,0,0-10,0-10,10,0,10,0,0-5,0-5-20,0-20,0,0-10,0-10,5,0,5,0,0,5,0,5,5,0,5,0,0-10,0-10,10,0,10,0,0-5,0-5,5,0,5,0,0,5,0,5-5,0-5,0,0,10,0,10,5,0,5,0,0,20,0,20-5,0-5,0,0,5,0,5-5,0-5,0,0,5,0,5-5,0-5,0,0,5,0,5-10,0-10,0,0-5,0-5-5,0-5,0,0,10,0,10-5,0-5,0,0-10zm10-15,0-5-5,0-5,0,0,5,0,5,5,0,5,0,0-5zm-10-20,0-5-5,0-5,0,0,5,0,5,5,0,5,0,0-5zm20,0,0-5-5,0-5,0,0,5,0,5,5,0,5,0,0-5zm40,0,0-5-5,0-5,0,0,5,0,5,5,0,5,0,0-5zm30,20,0-5,5,0,5,0,0,5,0,5-5,0-5,0,0-5zm20,0,0-5,5,0,5,0,0,5,0,5-5,0-5,0,0-5zm-210-50v-35h35,35v35,35h-35-35v-35zm60,0,0-25-25,0-25,0,0,25,0,25,25,0,25,0,0-25zm-40,0,0-15,15,0,15,0,0,15,0,15-15,0-15,0,0-15zm160,0,0-35,35,0,35,0,0,35,0,35-35,0-35,0,0-35zm60,0,0-25-25,0-25,0,0,25,0,25,25,0,25,0,0-25zm-40,0,0-15,15,0,15,0,0,15,0,15-15,0-15,0,0-15zm-120-20,0-5,5,0,5,0,0,5,0,5-5,0-5,0,0-5zm20-5,0-10,5,0,5,0,0,10,0,10-5,0-5,0,0-10zm20-5,0-5,5,0,5,0,0,5,0,5-5,0-5,0,0-5z"/>
</svg>
