<?xml version="1.0" encoding="UTF-8"?>
<svg viewBox="0 0 218.4106 2468.5459" xmlns="http://www.w3.org/2000/svg" xmlns:xlink="http://www.w3.org/1999/xlink">
 <defs>
  <filter id="i" x="-.35199" y="-.01897" width="1.704" height="1.0379">
   <feGaussianBlur stdDeviation="18.7987"/>
  </filter>
  <linearGradient id="b">
   <stop stop-color="#f3dda5" offset="0"/>
   <stop stop-color="#bb921c" offset=".5"/>
   <stop stop-color="#937448" offset="1"/>
  </linearGradient>
  <radialGradient id="h" cx="436.44" cy="527.18" r="63.142" gradientTransform="matrix(.43237 .2296 -.82776 1.5588 698.11 171.34)" gradientUnits="userSpaceOnUse" xlink:href="#b"/>
  <radialGradient id="g" cx="436.44" cy="527.18" r="63.142" gradientTransform="matrix(.43237 .2296 -.82776 1.5588 698.11 282.98)" gradientUnits="userSpaceOnUse" xlink:href="#b"/>
  <radialGradient id="f" cx="436.44" cy="527.18" r="63.142" gradientTransform="matrix(.43237 .2296 -.82776 1.5588 698.11 393.89)" gradientUnits="userSpaceOnUse" xlink:href="#b"/>
  <radialGradient id="a" cx="436.44" cy="527.18" r="63.142" gradientTransform="matrix(.43237 .2296 -.82776 1.5588 677.03 -417.4)" gradientUnits="userSpaceOnUse" xlink:href="#b"/>
  <radialGradient id="e" cx="436.44" cy="527.18" r="63.142" gradientTransform="matrix(.43237 .2296 -.82776 1.5588 698.11 2510.8)" gradientUnits="userSpaceOnUse" xlink:href="#b"/>
  <radialGradient id="d" cx="436.44" cy="527.18" r="63.142" gradientTransform="matrix(.43237 .2296 -.82776 1.5588 698.11 2623.7)" gradientUnits="userSpaceOnUse" xlink:href="#b"/>
  <radialGradient id="c" cx="436.44" cy="527.18" r="63.142" gradientTransform="matrix(.43237 .2296 -.82776 1.5588 698.11 2735.3)" gradientUnits="userSpaceOnUse" xlink:href="#b"/>
 </defs>
 <g transform="translate(-330.6 -1189.9)">
  <path d="m375.75,1234.9688c.0215,1.0328.0561,2.0432.0937,3.0624 .0103.3941.0144.7966.0312,1.1876 .006.03-.006.063 0,.094 .72376,16.5596 3.61022,31.2405 8.0625,43.2813-1.76373,6.5978-3.23125,13.0919-4.40625,19.4687-.001.032.001.062 0,.094-.10631.5783-.21092,1.1428-.3125,1.7188-.2323,1.3165-.44809,2.6322-.65625,3.9375-.11658.7321-.23474,1.4591-.34375,2.1875-.18475,1.232-.36775,2.4664-.53125,3.6875-.0977.7314-.15986,1.4601-.25,2.1875-.43348,3.4889-.79838,6.9219-1.0625,10.3125-.006.073-.0257.146-.0312.2187 .00035.011-.00035.021 0,.031-.43799,5.707-.64099,11.2686-.625,16.6563 .005.019-.005.043 0,.062 .001.4086.0283.8115.0312,1.2188 .0128,1.3536.0222,2.7002.0625,4.0312 .0218.8149.0279,1.6339.0625,2.4376 .006.032.0254.062.0312.094 .71574,16.4129 3.52262,30.9867 7.90625,42.9687-1.71454,6.4573-3.13075,12.8175-4.28125,19.0626-.001.032.001.062 0,.094-.10631.5782-.21092,1.1427-.3125,1.7187-.2323,1.3168-.44809,2.632-.65625,3.9376-.11658.7321-.23474,1.4591-.34375,2.1874-.18475,1.2323-.36775,2.4661-.53125,3.6876-.0977.7314-.15986,1.46-.25,2.1874-.42816,3.447-.79961,6.8678-1.0625,10.2188-.008.1036-.0233.209-.0312.3125 .0007.021-.00071.042 0,.062-.43714,5.6974-.64011,11.2457-.625,16.625 .005.019-.005.043 0,.062 .001.3981.0284.7906.0312,1.1875 .0128,1.4009.0203,2.7796.0625,4.1562 .0214.7832.0292,1.571.0625,2.3438 .006.032.0254.062.0312.094 .71313,16.3636 3.51639,30.9127 7.875,42.875-1.69513,6.4025-3.10955,12.7128-4.25,18.9062-.001.032.001.062 0,.094-.28892,1.5723-.55792,3.162-.8125,4.7187-.23644,1.4479-.44926,2.8793-.65625,4.3125-.12128.8381-.26358,1.6669-.375,2.5-.0964.7224-.16096,1.4377-.25,2.1562-.18064,1.454-.34911,2.9064-.5,4.3438-.0481.4594-.0799.9173-.125,1.375-.11009,1.114-.22005,2.2403-.3125,3.3438-.0415.4964-.11824,1.0056-.15625,1.5 .002.064-.002.1238 0,.1874-.42976,5.6529-.64077,11.161-.625,16.5 .005.02-.005.043 0,.063 .001.4085.0283.8114.0312,1.2187 .009.9644.008,1.922.0312,2.875 .0244,1.208.0427,2.4089.0937,3.5937 .0174.095.0451.1866.0625.2813 .7308,16.3354 3.50744,30.8471 7.875,42.7813-1.72584,6.4992-3.12674,12.9035-4.28125,19.1874 .002-.042-.002-.083 0-.125-.55968,3.0377-1.03741,6.0557-1.46875,9.0313-.12722.8762-.25856,1.7543-.375,2.625-.0964.7224-.16096,1.4377-.25,2.1563-.18064,1.4539-.34911,2.9063-.5,4.3437-.0549.525-.1052,1.0398-.15625,1.5625-.0988,1.0087-.19689,2.0312-.28125,3.0312-.0446.5301-.11567,1.0661-.15625,1.5938 .002.073-.003.1454 0,.2188-.42941,5.6482-.64041,11.1337-.625,16.4687 .005.019-.005.043 0,.062 .001.398.0284.7906.0312,1.1875 .009,1.003.007,2.0094.0312,3 .0243,1.176.0441,2.346.0937,3.5 .0173.094.0452.187.0625.2813 .73478,16.4857 3.56622,31.0953 8,43.0937-1.76965,6.6173-3.22863,13.1048-4.40625,19.5-.001.032.001.062 0,.094-.28892,1.5724-.55792,3.1621-.8125,4.7188-.23644,1.4479-.44926,2.8793-.65625,4.3125-.12128.8381-.26358,1.6669-.375,2.5-.0964.7224-.16096,1.4377-.25,2.1563-.18064,1.4539-.34911,2.9063-.5,4.3437-.0481.4594-.0799.9173-.125,1.375-.11009,1.114-.22005,2.2403-.3125,3.3437-.0415.4965-.11824,1.0057-.15625,1.5 .002.063-.002.1247 0,.1876-.42976,5.6528-.64077,11.1609-.625,16.5 .005.019-.005.043 0,.062 .001.4086.0283.8115.0312,1.2188 .009.9644.008,1.922.0312,2.875 .0244,1.208.0427,2.4088.0937,3.5938 .0174.095.0451.1865.0625.2812 .74853,16.7318 3.63643,31.5614 8.1875,43.6562-1.86122,6.885-3.37275,13.6666-4.59375,20.3126 .002-.043-.002-.083 0-.125-.5891,3.1972-1.08418,6.3402-1.53125,9.4687-.0926.6462-.19452,1.2943-.28125,1.9375-.12065.8977-.2032,1.7958-.3125,2.6875-.16885,1.3728-.32644,2.7357-.46875,4.0937-.0373.357-.0895.7067-.125,1.0626-.12139,1.2137-.24329,2.4237-.34375,3.625-.0407.4877-.0876.983-.125,1.4687 .002.063-.002.1246 0,.1875-.42976,5.6528-.64077,11.161-.625,16.5 .005.019-.005.043 0,.062 .001.4085.0283.8115.0312,1.2187 .009.973.008,1.945.0312,2.9063 .0244,1.1973.0432,2.3879.0937,3.5625 .0174.095.0451.1866.0625.2812 .73491,16.4851 3.56639,31.0959 8,43.0938-1.77511,6.6408-3.22731,13.1768-4.40625,19.5938 .002-.043-.002-.083 0-.125-.5891,3.1972-1.08418,6.3402-1.53125,9.4687-.0926.6462-.19452,1.2943-.28125,1.9375-.12065.8977-.2032,1.7958-.3125,2.6875-.16885,1.3728-.32644,2.7357-.46875,4.0937-.0373.357-.0895.7067-.125,1.0626-.12139,1.2137-.24329,2.4237-.34375,3.625-.0407.4877-.0876.983-.125,1.4687 .002.063-.002.1246 0,.1875-.42976,5.6528-.64077,11.161-.625,16.5 .005.019-.005.043 0,.062 .001.4085.0283.8115.0312,1.2187 .009.973.008,1.945.0312,2.9063 .0244,1.1973.0432,2.3879.0937,3.5625 .0173.094.0452.187.0625.2812 .74115,16.6251 3.5953,31.3517 8.09375,43.4063-1.81439,6.7447-3.30036,13.3915-4.5,19.9063-.001.032.001.062 0,.094-.28892,1.5724-.55792,3.162-.8125,4.7187-.23644,1.4479-.44926,2.8793-.65625,4.3126-.12128.8381-.26358,1.6669-.375,2.5-.0964.7224-.16096,1.4377-.25,2.1562-.18064,1.4539-.34911,2.9064-.5,4.3438-.0481.4594-.0799.9172-.125,1.375-.11009,1.1139-.22005,2.2403-.3125,3.3437-.0415.4965-.11824,1.0056-.15625,1.5 .002.063-.002.1246 0,.1875-.42976,5.6528-.64077,11.161-.625,16.5 .005.019-.005.043 0,.062 .001.4085.0283.8115.0312,1.2187 .009.9645.008,1.922.0312,2.875 .0244,1.208.0427,2.4089.0937,3.5938 .0174.095.0451.1866.0625.2812 .73722,16.4789 3.56635,31.1006 8,43.0938-1.77509,6.6408-3.22732,13.1768-4.40625,19.5938 .002-.043-.002-.083 0-.125-.5891,3.1972-1.08418,6.3403-1.53125,9.4687-.0926.6462-.19452,1.2943-.28125,1.9375-.12065.8977-.2032,1.7958-.3125,2.6875-.16885,1.3728-.32644,2.7357-.46875,4.0937-.0373.3569-.0895.7067-.125,1.0626-.12139,1.2137-.24329,2.4237-.34375,3.625-.0407.4877-.0876.983-.125,1.4687 .002.063-.002.1246 0,.1875-.42976,5.6528-.64077,11.161-.625,16.5 .005.019-.005.043 0,.062 .001.4085.0283.8115.0312,1.2187 .009.973.008,1.945.0312,2.9063 .0244,1.1973.0432,2.3879.0937,3.5625 .0174.095.0451.1866.0625.2812 .72846,16.3405 3.50797,30.8428 7.875,42.7813-1.72584,6.4993-3.12674,12.9035-4.28125,19.1875 .002-.042-.002-.082 0-.125-.58717,3.1868-1.08519,6.319-1.53125,9.4375-.0942.6564-.19316,1.3155-.28125,1.9687-.12065.8977-.2032,1.7959-.3125,2.6876-.16885,1.3728-.32644,2.7357-.46875,4.0937-.0373.3569-.0895.7066-.125,1.0625-.12139,1.2138-.24329,2.4237-.34375,3.625-.0407.4878-.0876.983-.125,1.4688 .002.063-.002.1246 0,.1874-.42976,5.6529-.64077,11.161-.625,16.5 .005.019-.005.043 0,.063 .001.4085.0283.8114.0312,1.2187 .009.9729.008,1.945.0312,2.9063 .0244,1.1973.0432,2.3878.0937,3.5624 .0173.094.0452.187.0625.2813 .72657,16.298 3.49619,30.7667 7.84375,42.6875-1.70403,6.4361-3.1064,12.7754-4.25,19 .002-.042-.002-.082 0-.125-.5744,3.1175-1.06071,6.1979-1.5,9.25-.11438.7929-.2382,1.5866-.34375,2.375-.0977.7314-.15986,1.4601-.25,2.1875-.18361,1.4779-.34712,2.9455-.5,4.4063-.0362.347-.0905.6852-.125,1.0312-.12127,1.2126-.24336,2.4249-.34375,3.625-.0407.4877-.0876.983-.125,1.4688 .002.073-.003.1453 0,.2187-.42879,5.6464-.64075,11.1355-.625,16.4687 .005.019-.005.043 0,.063 .001.4085.0283.8114.0312,1.2187 .009.9729.008,1.945.0312,2.9063 .0244,1.1973.0432,2.3879.0937,3.5624 .0173.094.0452.187.0625.2813 .72903,16.353 3.50218,30.8688 7.875,42.8125-1.72584,6.4993-3.12674,12.9035-4.28125,19.1875 .002-.042-.002-.082 0-.125-.5744,3.1175-1.06071,6.1978-1.5,9.25-.11438.7929-.2382,1.5866-.34375,2.375-.0977.7314-.15986,1.4601-.25,2.1875-.18361,1.4779-.34712,2.9455-.5,4.4062-.0362.3471-.0905.6852-.125,1.0313-.12139,1.2138-.24329,2.4237-.34375,3.625-.0407.4878-.0876.983-.125,1.4687 .002.063-.002.1247 0,.1876-.42976,5.6528-.64077,11.1609-.625,16.5 .005.019-.005.043 0,.062 .001.4086.0283.8115.0312,1.2188 .009.9729.008,1.945.0312,2.9062 .0244,1.1974.0432,2.3879.0937,3.5626 .0173.094.0452.1869.0625.2812 .73491,16.485 3.56639,31.0958 8,43.0938-1.77511,6.6408-3.22731,13.1767-4.40625,19.5937 .002-.042-.002-.082 0-.125-.5744,3.1175-1.06071,6.1978-1.5,9.25-.11438.7929-.2382,1.5866-.34375,2.375-.0977.7314-.15986,1.4601-.25,2.1875-.18361,1.4779-.34712,2.9455-.5,4.4062-.0362.3471-.0905.6852-.125,1.0313-.12127,1.2126-.24336,2.4249-.34375,3.625-.0407.4878-.0876.983-.125,1.4687 .002.073-.003.1454 0,.2188-.42845,5.6418-.64039,11.1395-.625,16.4688 .005.019-.005.043 0,.062 .001.3981.0284.7907.0312,1.1876 .009,1.0029.007,2.0093.0312,3 .0243,1.176.0441,2.3459.0937,3.5 .0173.094.0452.1869.0625.2812 .74613,16.7405 3.63543,31.5555 8.1875,43.6562-1.85251,6.8524-3.37552,13.603-4.59375,20.2188-.001.032.001.062 0,.094-.28892,1.5723-.55792,3.162-.8125,4.7187-.23644,1.4479-.44926,2.8793-.65625,4.3125-.12128.8381-.26358,1.6669-.375,2.5-.0964.7224-.16096,1.4377-.25,2.1562-.18064,1.454-.34911,2.9064-.5,4.3438-.0481.4594-.0799.9173-.125,1.375-.11009,1.114-.22005,2.2403-.3125,3.3438-.0415.4964-.11824,1.0056-.15625,1.5 .002.064-.002.1238 0,.1874-.42976,5.6529-.64077,11.161-.625,16.5 .005.019-.005.043 0,.063 .001.4085.0283.8114.0312,1.2187 .009.9644.008,1.922.0312,2.875 .0244,1.208.0427,2.4088.0937,3.5937 .0174.095.0451.1866.0625.2813 .73722,16.4789 3.56635,31.1006 8,43.0937-1.77509,6.6408-3.22732,13.1769-4.40625,19.5938 .002-.042-.002-.082 0-.125-.58717,3.1868-1.08519,6.319-1.53125,9.4375-.0942.6564-.19316,1.3155-.28125,1.9687-.12541.9331-.2306,1.8547-.34375,2.7813-.15532,1.2671-.30481,2.5267-.4375,3.7813-.0671.6372-.1261,1.2722-.1875,1.9062-.0964.992-.16759,1.9852-.25,2.9688-.0415.4964-.11824,1.0056-.15625,1.5 .002.063-.002.1246 0,.1874-.42976,5.6529-.64077,11.161-.625,16.5 .005.019-.005.043 0,.063 .001.4085.0283.8114.0312,1.2187 .009.9644.008,1.922.0312,2.875 .0244,1.208.0427,2.4089.0937,3.5937 .0174.095.0451.1866.0625.2813 .72936,16.3033 3.52213,30.7978 7.875,42.7187-1.71536,6.469-3.13198,12.8383-4.28125,19.0938 .002-.042-.002-.082 0-.125-.5744,3.1175-1.06071,6.1978-1.5,9.25-.11438.7929-.2382,1.5866-.34375,2.375-.0977.7314-.15986,1.4601-.25,2.1875-.18361,1.4779-.34712,2.9455-.5,4.4063-.0362.347-.0905.6851-.125,1.0312-.12127,1.2126-.24336,2.4249-.34375,3.625-.0407.4878-.0876.983-.125,1.4688 .002.073-.003.1453 0,.2187-.42879,5.6464-.64075,11.1355-.625,16.4687 .005.019-.005.043 0,.063 .001.4085.0283.8114.0312,1.2187 .009.9729.008,1.945.0312,2.9063 .0244,1.1973.0432,2.3878.0937,3.5624 .0173.094.0452.187.0625.2813 .73491,16.485 3.56639,31.0958 8,43.0937-1.77511,6.6409-3.22731,13.1768-4.40625,19.5938 .002-.042-.002-.083 0-.125-.55968,3.0376-1.03741,6.0556-1.46875,9.0312-.12722.8762-.25856,1.7544-.375,2.625-.0964.7225-.16096,1.4378-.25,2.1563-.18064,1.4539-.34911,2.9064-.5,4.3437-.0549.525-.1052,1.0398-.15625,1.5626-.0988,1.0086-.19689,2.0312-.28125,3.0312-.0446.5301-.11567,1.066-.15625,1.5938 .002.073-.003.1453 0,.2187-.42941,5.6483-.64041,11.1337-.625,16.4687 .005.019-.005.043 0,.063 .001.398.0284.7906.0312,1.1874 .009,1.003.007,2.0094.0312,3 .0243,1.1761.0441,2.346.0937,3.5 .0173.094.0452.187.0625.2813 .72833,16.3412 3.5078,30.8423 7.875,42.7813-1.71691,6.4656-3.12987,12.841-4.28125,19.0937-.001.032.001.062 0,.094-.28892,1.5724-.55792,3.1621-.8125,4.7188-.23644,1.4479-.44926,2.8793-.65625,4.3125-.12128.8381-.26358,1.6669-.375,2.5-.0964.7224-.16096,1.4377-.25,2.1563-.18064,1.4539-.34911,2.9063-.5,4.3437-.0481.4594-.0799.9173-.125,1.375-.11009,1.114-.22005,2.2403-.3125,3.3437-.0415.4965-.11824,1.0057-.15625,1.5 .002.063-.002.1247 0,.1876-.42976,5.6528-.64077,11.1609-.625,16.5 .005.019-.005.043 0,.062 .001.4086.0283.8115.0312,1.2188 .009.9644.008,1.922.0312,2.875 .0244,1.208.0427,2.4089.0937,3.5938 .0174.095.0451.1865.0625.2812 .72835,16.2807 3.50126,30.7448 7.84375,42.6562-1.70717,6.4453-3.10482,12.7981-4.25,19.0313 .002-.042-.002-.082 0-.125-.58717,3.1868-1.08519,6.319-1.53125,9.4375-.0942.6564-.19316,1.3155-.28125,1.9688-.12065.8976-.2032,1.7958-.3125,2.6874-.16885,1.3729-.32644,2.7358-.46875,4.0938-.0373.3569-.0895.7066-.125,1.0625-.12139,1.2138-.24329,2.4237-.34375,3.625-.0407.4878-.0876.983-.125,1.4687 .002.063-.002.1247 0,.1876-.42976,5.6528-.64077,11.1609-.625,16.5 .005.019-.005.043 0,.062 .001.4086.0283.8115.0312,1.2188 .009.9729.008,1.945.0312,2.9062 .0244,1.1974.0432,2.3879.0937,3.5626 .0174.095.0451.1865.0625.2812 .72903,16.353 3.50218,30.8688 7.875,42.8125-1.72559,6.4985-3.12687,12.9042-4.28125,19.1875 .002-.042-.002-.082 0-.125-.56738,3.0794-1.03323,6.1094-1.46875,9.125-.11955.8261-.26504,1.6475-.375,2.4688-.10775.8066-.18268,1.6044-.28125,2.4062-.16357,1.326-.32996,2.6565-.46875,3.9688-.0671.6372-.1261,1.2722-.1875,1.9062-.0964.992-.16759,1.9852-.25,2.9688-.0415.4964-.11824,1.0056-.15625,1.5 .002.063-.002.1246 0,.1874-.42976,5.6529-.64077,11.161-.625,16.5 .005.019-.005.043 0,.063 .001.4085.0283.8114.0312,1.2187 .009.9644.008,1.922.0312,2.875 .0244,1.208.0427,2.4088.0937,3.5937 .0174.095.0451.1866.0625.2813 .73752,16.4858 3.56317,31.129 8,43.125-1.7677,6.6216-3.23204,13.1643-4.40625,19.5625 .002-.042-.002-.083 0-.125-.0987.5358-.18659,1.0598-.28125,1.5938-.0539.3038-.1037.6029-.15625.9062-.21521,1.2416-.43148,2.4876-.625,3.7188-.0146.093-.0168.1885-.0312.2812-.0984.6307-.1885,1.2471-.28125,1.875-.16988,1.1497-.34866,2.2973-.5,3.4375-.147,1.1084-.27653,2.2133-.40625,3.3125-.0356.3014-.0595.6056-.0937.9062-.13082,1.1474-.2627,2.3006-.375,3.4376-.12969,1.3133-.23857,2.6075-.34375,3.9062-.0261.3218-.0691.6479-.0937.9688 .00035.01-.00035.021 0,.031-.43919,5.748-.61505,11.3575-.59375,16.7812-.0116-.041-.0196-.084-.0312-.125 .008,2.6186.0471,5.2155.15625,7.75 .0211.1149.0414.229.0625.3438 .57313,12.6313 2.37296,24.1773 5.1875,34.2812h5.71875 3.375 11.9375 40.125 1.625 8.625 .90625 2.71875 44.3125c6.07613-33.7422 3.32186-66.0124-2.59375-98.875-.0915.2232-.21601.4894-.3125.7188 9.647-38.6889 7.01125-75.1621.3125-112.375-.33369.8132-.72664,1.6984-1.125,2.5938 10.59297-39.8555 8.0041-77.2852 1.125-115.5-.0891.2171-.2187.4643-.3125.6874 9.61586-38.6221 7.02235-75.0373.34375-112.1874 9.23379-38.0914 6.61276-74.0677.0312-110.75 9.21092-38.0993 6.56365-74.0848-.0312-110.7813 9.26013-38.2 6.59157-74.2714-.0312-111.0625-.0933.2274-.21406.4848-.3125.7188 9.62268-38.602 7.00966-74.9981.34375-112.125 9.24318-38.1783 6.58818-74.2278-.0312-111-.0891.2171-.2187.4643-.3125.6874 9.62679-38.666 7.00785-75.1184.3125-112.3124-.32828.8-.70288,1.6516-1.09375,2.5312 10.57078-39.831 7.96923-77.2428 1.09375-115.4375-.0933.2274-.21406.4848-.3125.7187 9.63318-38.6439 7.02573-75.0809.34375-112.25 9.23625-38.1014 6.61663-74.0574.0312-110.75 9.21096-38.0994 6.56372-74.0845-.0312-110.7812 9.26013-38.2 6.59157-74.2714-.0312-111.0625-.0891.2172-.2187.4644-.3125.6875 9.62679-38.666 7.00785-75.1184.3125-112.3125-.22326.5441-.49759,1.1376-.75,1.7187 10.15882-39.3285 7.548-76.3294.75-114.0937-.0891.2172-.2187.4644-.3125.6875 9.62679-38.666 7.00785-75.1184.3125-112.3125-.33369.8132-.72667,1.6984-1.125,2.5937 10.59024-39.8545 8.0041-77.2851 1.125-115.5-.0884.2155-.18822.4662-.28125.6876 9.61363-38.6193 6.99061-75.0399.3125-112.1876 9.23369-38.0909 6.61262-74.068.0312-110.75 4.02529-16.6335 5.77873-32.8756 5.9375-48.9374h-29.9375-53.25-44-.90625-.0312z" fill-opacity=".5" filter="url(#i)"/>
  <path d="m375.75 1235c0.54289 26.14 6.2984 47.981 15.312 62.562 8.1711-17.679 18.657-39.647 29.625-62.562h-44.938z" fill="url(#h)"/>
  <path d="m393.59 1235c4.2509 9.9985 9.2131 19.093 13.719 28l1.1875-2.5c-1.7361-9.0547-4.4678-17.29-7.4375-25.5h-7.4688z" fill="#78540a"/>
  <path d="m378.88 1235c4.1383 18.631 12.554 32.747 20.25 45.281 0.35444-0.754 0.70322-1.5182 1.0625-2.2812-4.7058-13.89-11.88-25.705-16.469-43h-4.8438z" fill="#78540a"/>
  <path d="m375.78 1235c0.0241 1.4301 0.0335 2.8509 0.0937 4.25 3.619 19.744 7.6206 39.526 17.906 52.5 1.2461-2.6778 2.4856-5.3578 3.8125-8.1876-11.868-11.817-15.903-30.17-20.906-48.562h-0.90625z" fill="#78540a"/>
  <path d="m401.81 1235c-1.5828 3.2383-3.1282 6.4278-4.5625 9.5312-29.854 68.804-25.51 133.4-6.1875 164.66 22.282-48.211 61.046-127.42 82.875-174.19h-72.125z" fill="url(#g)"/>
  <path d="m433.47 1235c2.9654 21.345 6.5546 43.001 10.344 63.344 0.18958-0.3952 0.40453-0.793 0.59375-1.1875 0.20895-21.895-1.4096-42.811-4.25-62.156h-6.6875z" fill="#78540a"/>
  <path d="m449.75 1235c1.2565 14.848 2.1284 30.116 2.4375 45.906 0.26397-0.5517 0.51858-1.107 0.78125-1.6562 1.14-14.985 1.5264-29.846 1.0938-44.25h-4.3125z" fill="#78540a"/>
  <path d="m415.41 1235c1.3082 28.344 8.8974 63.561 16.156 88.875 0.35381-0.7373 0.70869-1.4503 1.0625-2.1876-0.5017-30.586-7.7719-58.478-12.094-86.687h-5.125z" fill="#78540a"/>
  <path d="m402.84 1235c-2.3249 38.914 10.373 81.778 19.562 108 0.66661-1.392 1.3302-2.7899 2-4.1876-2.9159-33.239-13.171-68.926-16.594-103.81h-4.9688z" fill="#78540a"/>
  <path d="m393.45 1253.8c-0.28914 0.7375-0.56234 1.4827-0.84375 2.2188-7.5497 42.716 9.2627 75.497 21.906 103.47 0.34957-0.7325 0.67985-1.389 1.0312-2.125-5.8779-37.077-21.424-59.71-22.094-103.56z" fill="#78540a"/>
  <path d="m386.83 1272.7c-0.92977 3.0034-1.8199 6.0009-2.625 8.9687-5.1626 42.622 10.731 68.437 23.125 92.938l1.1875-2.5c-6.0765-31.692-24.511-53.243-21.688-99.406z" fill="#78540a"/>
  <path d="m379.54 1302.1c-1.5394 8.355-2.583 16.482-3.1875 24.344 0.97514 29.285 12.526 48.765 22.781 65.469 0.35444-0.754 0.70322-1.5182 1.0625-2.2813-7.8642-23.213-22.712-40.577-20.656-87.531z" fill="#78540a"/>
  <path d="m375.73 1343.1c8e-3 2.6187 0.0471 5.2155 0.15625 7.75 3.619 19.744 7.6206 39.526 17.906 52.5 1.2461-2.6778 2.4856-5.3577 3.8125-8.1875-12.62-12.567-16.387-32.526-21.875-52.062z" fill="#78540a"/>
  <path d="m463.88 1235c-22.401 38.143-49.866 84.178-66.625 120.44-29.854 68.804-25.51 133.43-6.1875 164.69 28.433-61.519 83.825-173.8 96.438-204.31 11.603-28.067 16.116-54.66 16.375-80.812h-40z" fill="url(#f)"/>
  <path d="m429.12 1294.6c-0.40901 0.7735-0.81105 1.5396-1.2188 2.3125 2.9276 35.42 9.1539 75.995 15.925 112.35 0.18958-0.3952 0.40453-0.793 0.59375-1.1875 0.41156-43.127-6.3816-82.448-15.3-113.47z" fill="#78540a"/>
  <path d="m442.15 1271.9c-0.42848 0.7971-0.85231 1.5762-1.2812 2.375 5.7147 36.81 10.5 75.302 11.327 117.56 0.26397-0.5517 0.51858-1.1071 0.78125-1.6563 3.2925-43.278 0.39662-85.679-10.827-118.27z" fill="#78540a"/>
  <path d="m450.11 1258.3c-0.15515 0.2873-0.31338 0.5873-0.46875 0.875 7.716 32.724 14.58 65.883 12.937 110.74 1.0065-2.1184 1.9675-4.108 2.9375-6.1562 7.6856-44.746-2.5156-75.818-15.406-105.46z" fill="#78540a"/>
  <path d="m460.54 1240.5c-0.21125 0.3914-0.41286 0.7946-0.625 1.1875 7.6122 35.801 16.841 58.488 16.282 99.33 0.40309-0.8689 0.73604-1.6269 1.125-2.4688 5.99-46.729-5.4764-70.98-16.782-98.049z" fill="#78540a"/>
  <path d="m471.44 1235c9.7527 29.105 12.113 50.868 12.5 89.062 0.76747-1.7312 1.428-3.2417 2.0625-4.7187 4.2802-42.092-2.591-63.787-12.75-84.344h-1.8125z" fill="#78540a"/>
  <path d="m417.48 1315.7c-0.0318 0.062-0.062 0.1257-0.0937 0.1875-6.8718 28.094 3.9839 83.304 14.193 118.91 0.35381-0.7372 0.70869-1.4503 1.0625-2.1875-0.67933-41.416-13.829-77.9-15.162-116.91z" fill="#78540a"/>
  <path d="m406.99 1335.3c-1.3469 2.7256-2.7202 5.4759-4 8.125-3.0152 39.542 10.055 83.654 19.434 110.42 0.66661-1.3919 1.3302-2.7898 2-4.1875-3.2103-36.596-15.351-76.161-17.434-114.36z" fill="#78540a"/>
  <path d="m393.45 1364.7c-0.28914 0.7375-0.56234 1.4827-0.84375 2.2188-7.5497 42.716 9.2627 75.497 21.906 103.47 0.34957-0.7325 0.67985-1.389 1.0312-2.125-5.8779-37.077-21.424-59.71-22.094-103.56z" fill="#78540a"/>
  <path d="m386.83 1383.6c-0.92977 3.0034-1.8199 6.0009-2.625 8.9687-5.1626 42.622 10.731 68.437 23.125 92.938l1.1875-2.5c-6.0765-31.692-24.511-53.243-21.688-99.406z" fill="#78540a"/>
  <path d="m379.54 1413c-1.5394 8.355-2.583 16.482-3.1875 24.344 0.97514 29.285 12.526 48.765 22.781 65.469 0.35444-0.754 0.70322-1.5182 1.0625-2.2813-7.8642-23.213-22.712-40.577-20.656-87.531z" fill="#78540a"/>
  <path d="m485.94 1235c6.0827 20.885 5.4128 43.064 3.0312 77.094 0.48141-1.2432 0.92689-2.4787 1.375-3.7187 6.2919-37.521 7.2002-57.077 1-73.375h-5.4062z" fill="#78540a"/>
  <path d="m499.41 1235c1.4786 8.1737 2.2452 16.868 2.5 26.906 0.46749-7.9527-0.10812-17.765-0.84375-26.906h-1.6562z" fill="#78540a"/>
  <path d="m375.73 1454c8e-3 2.6187 0.0471 5.2155 0.15625 7.75 3.619 19.744 7.6206 39.526 17.906 52.5 1.2461-2.6778 2.4856-5.3577 3.8125-8.1875-12.62-12.567-16.387-32.526-21.875-52.062z" fill="#78540a"/>
  <g transform="translate(21.075 921.92)">
   <path d="m370 708.79c28.433-61.519 83.816-173.78 96.429-204.29 20.825-50.373 18.793-96.016 10.364-142.84-12.584 30.668-72.171 120.93-100.6 182.45-29.854 68.804-25.512 133.42-6.1891 164.68z" fill="url(#a)"/>
   <path d="m408.04 483.28c-0.40901 0.77359-0.81105 1.5396-1.2188 2.3125 2.9276 35.42 9.1539 75.995 15.925 112.35 0.18958-0.39519 0.40453-0.79302 0.59375-1.1875 0.41156-43.127-6.3816-82.448-15.3-113.47z" fill="#78540a"/>
   <path d="m421.08 460.57c-0.42848 0.79704-0.85231 1.5762-1.2812 2.375 5.7147 36.81 10.5 75.302 11.327 117.56 0.26397-0.55169 0.51858-1.1071 0.78125-1.6562 3.2925-43.278 0.39662-85.679-10.827-118.27z" fill="#78540a"/>
   <path d="m429.03 447.04c-0.15515 0.28729-0.31338 0.58725-0.46875 0.875 7.716 32.724 14.58 65.883 12.937 110.74 1.0065-2.1184 1.9675-4.1081 2.9375-6.1562 7.6856-44.746-2.5156-75.818-15.406-105.46z" fill="#78540a"/>
   <path d="m439.47 429.23c-0.21125 0.39137-0.41286 0.7946-0.625 1.1875 7.6122 35.801 16.841 58.488 16.282 99.33 0.40309-0.86892 0.73604-1.6269 1.125-2.4688 5.99-46.729-5.4764-70.98-16.782-98.049z" fill="#78540a"/>
   <path d="m447.8 415.12-0.25 0.46875c12.146 33.405 14.907 55.505 15.329 97.158 0.76747-1.7313 1.428-3.2418 2.0625-4.7188 4.8738-47.93-4.7054-69.448-17.141-92.908z" fill="#78540a"/>
   <path d="m396.4 504.37c-0.0318 0.0618-0.062 0.12575-0.0937 0.1875-6.8718 28.094 3.9839 83.304 14.193 118.91 0.35381-0.73724 0.70869-1.4503 1.0625-2.1875-0.67933-41.416-13.829-77.9-15.162-116.91z" fill="#78540a"/>
   <path d="m385.91 524.05c-1.3469 2.7256-2.7202 5.4759-4 8.125-3.0152 39.542 10.055 83.654 19.434 110.42 0.66661-1.3919 1.3302-2.7898 2-4.1875-3.2103-36.596-15.351-76.161-17.434-114.36z" fill="#78540a"/>
   <path d="m372.38 553.41c-0.28914 0.73744-0.56234 1.4826-0.84375 2.2188-7.5497 42.716 9.2627 75.497 21.906 103.47 0.34957-0.73257 0.67985-1.389 1.0312-2.125-5.8779-37.077-21.424-59.71-22.094-103.56z" fill="#78540a"/>
   <path d="m365.75 572.31c-0.92977 3.0034-1.8199 6.0009-2.625 8.9688-5.1626 42.622 10.731 68.437 23.125 92.938l1.1875-2.5c-6.0765-31.692-24.511-53.243-21.688-99.406z" fill="#78540a"/>
   <path d="m358.47 601.69c-1.5394 8.355-2.583 16.482-3.1875 24.344 0.97514 29.285 12.526 48.765 22.781 65.469 0.35444-0.75403 0.70322-1.5181 1.0625-2.2812-7.8642-23.213-22.712-40.577-20.656-87.531z" fill="#78540a"/>
   <path d="m456.16 400.73c-0.14808 0.28072-0.31955 0.56128-0.46875 0.84375 15.556 28.793 15.438 53.158 12.215 99.205 0.48141-1.2433 0.92689-2.4788 1.375-3.7188 9.3259-55.614 6.8103-71.775-13.122-96.33z" fill="#78540a"/>
   <path d="m464.94 385.13c-0.11297 0.22283-0.19829 0.43153-0.3125 0.65625 11.704 21.746 15.543 38.857 16.202 64.799 0.70072-11.92-0.94203-28.063-1.9546-39.772-3.6852-10.948-6.3295-15.369-13.935-25.682z" fill="#78540a"/>
   <path d="m354.66 642.72c8e-3 2.6187 0.0471 5.2155 0.15625 7.75 3.619 19.744 7.6206 39.526 17.906 52.5 1.2461-2.6778 2.4856-5.3578 3.8125-8.1875-12.62-12.567-16.387-32.526-21.875-52.062z" fill="#78540a"/>
  </g>
  <g transform="translate(21.075 1032.9)">
   <path d="m370 708.79c28.433-61.519 83.816-173.78 96.429-204.29 20.825-50.373 18.793-96.016 10.364-142.84-12.584 30.668-72.171 120.93-100.6 182.45-29.854 68.804-25.512 133.42-6.1891 164.68z" fill="url(#a)"/>
   <path d="m408.04 483.28c-0.40901 0.77359-0.81105 1.5396-1.2188 2.3125 2.9276 35.42 9.1539 75.995 15.925 112.35 0.18958-0.39519 0.40453-0.79302 0.59375-1.1875 0.41156-43.127-6.3816-82.448-15.3-113.47z" fill="#78540a"/>
   <path d="m421.08 460.57c-0.42848 0.79704-0.85231 1.5762-1.2812 2.375 5.7147 36.81 10.5 75.302 11.327 117.56 0.26397-0.55169 0.51858-1.1071 0.78125-1.6562 3.2925-43.278 0.39662-85.679-10.827-118.27z" fill="#78540a"/>
   <path d="m429.03 447.04c-0.15515 0.28729-0.31338 0.58725-0.46875 0.875 7.716 32.724 14.58 65.883 12.937 110.74 1.0065-2.1184 1.9675-4.1081 2.9375-6.1562 7.6856-44.746-2.5156-75.818-15.406-105.46z" fill="#78540a"/>
   <path d="m439.47 429.23c-0.21125 0.39137-0.41286 0.7946-0.625 1.1875 7.6122 35.801 16.841 58.488 16.282 99.33 0.40309-0.86892 0.73604-1.6269 1.125-2.4688 5.99-46.729-5.4764-70.98-16.782-98.049z" fill="#78540a"/>
   <path d="m447.8 415.12-0.25 0.46875c12.146 33.405 14.907 55.505 15.329 97.158 0.76747-1.7313 1.428-3.2418 2.0625-4.7188 4.8738-47.93-4.7054-69.448-17.141-92.908z" fill="#78540a"/>
   <path d="m396.4 504.37c-0.0318 0.0618-0.062 0.12575-0.0937 0.1875-6.8718 28.094 3.9839 83.304 14.193 118.91 0.35381-0.73724 0.70869-1.4503 1.0625-2.1875-0.67933-41.416-13.829-77.9-15.162-116.91z" fill="#78540a"/>
   <path d="m385.91 524.05c-1.3469 2.7256-2.7202 5.4759-4 8.125-3.0152 39.542 10.055 83.654 19.434 110.42 0.66661-1.3919 1.3302-2.7898 2-4.1875-3.2103-36.596-15.351-76.161-17.434-114.36z" fill="#78540a"/>
   <path d="m372.38 553.41c-0.28914 0.73744-0.56234 1.4826-0.84375 2.2188-7.5497 42.716 9.2627 75.497 21.906 103.47 0.34957-0.73257 0.67985-1.389 1.0312-2.125-5.8779-37.077-21.424-59.71-22.094-103.56z" fill="#78540a"/>
   <path d="m365.75 572.31c-0.92977 3.0034-1.8199 6.0009-2.625 8.9688-5.1626 42.622 10.731 68.437 23.125 92.938l1.1875-2.5c-6.0765-31.692-24.511-53.243-21.688-99.406z" fill="#78540a"/>
   <path d="m358.47 601.69c-1.5394 8.355-2.583 16.482-3.1875 24.344 0.97514 29.285 12.526 48.765 22.781 65.469 0.35444-0.75403 0.70322-1.5181 1.0625-2.2812-7.8642-23.213-22.712-40.577-20.656-87.531z" fill="#78540a"/>
   <path d="m456.16 400.73c-0.14808 0.28072-0.31955 0.56128-0.46875 0.84375 15.556 28.793 15.438 53.158 12.215 99.205 0.48141-1.2433 0.92689-2.4788 1.375-3.7188 9.3259-55.614 6.8103-71.775-13.122-96.33z" fill="#78540a"/>
   <path d="m464.94 385.13c-0.11297 0.22283-0.19829 0.43153-0.3125 0.65625 11.704 21.746 15.543 38.857 16.202 64.799 0.70072-11.92-0.94203-28.063-1.9546-39.772-3.6852-10.948-6.3295-15.369-13.935-25.682z" fill="#78540a"/>
   <path d="m354.66 642.72c8e-3 2.6187 0.0471 5.2155 0.15625 7.75 3.619 19.744 7.6206 39.526 17.906 52.5 1.2461-2.6778 2.4856-5.3578 3.8125-8.1875-12.62-12.567-16.387-32.526-21.875-52.062z" fill="#78540a"/>
  </g>
  <g transform="translate(21.075 1144.5)">
   <path d="m370 708.79c28.433-61.519 83.816-173.78 96.429-204.29 20.825-50.373 18.793-96.016 10.364-142.84-12.584 30.668-72.171 120.93-100.6 182.45-29.854 68.804-25.512 133.42-6.1891 164.68z" fill="url(#a)"/>
   <path d="m408.04 483.28c-0.40901 0.77359-0.81105 1.5396-1.2188 2.3125 2.9276 35.42 9.1539 75.995 15.925 112.35 0.18958-0.39519 0.40453-0.79302 0.59375-1.1875 0.41156-43.127-6.3816-82.448-15.3-113.47z" fill="#78540a"/>
   <path d="m421.08 460.57c-0.42848 0.79704-0.85231 1.5762-1.2812 2.375 5.7147 36.81 10.5 75.302 11.327 117.56 0.26397-0.55169 0.51858-1.1071 0.78125-1.6562 3.2925-43.278 0.39662-85.679-10.827-118.27z" fill="#78540a"/>
   <path d="m429.03 447.04c-0.15515 0.28729-0.31338 0.58725-0.46875 0.875 7.716 32.724 14.58 65.883 12.937 110.74 1.0065-2.1184 1.9675-4.1081 2.9375-6.1562 7.6856-44.746-2.5156-75.818-15.406-105.46z" fill="#78540a"/>
   <path d="m439.47 429.23c-0.21125 0.39137-0.41286 0.7946-0.625 1.1875 7.6122 35.801 16.841 58.488 16.282 99.33 0.40309-0.86892 0.73604-1.6269 1.125-2.4688 5.99-46.729-5.4764-70.98-16.782-98.049z" fill="#78540a"/>
   <path d="m447.8 415.12-0.25 0.46875c12.146 33.405 14.907 55.505 15.329 97.158 0.76747-1.7313 1.428-3.2418 2.0625-4.7188 4.8738-47.93-4.7054-69.448-17.141-92.908z" fill="#78540a"/>
   <path d="m396.4 504.37c-0.0318 0.0618-0.062 0.12575-0.0937 0.1875-6.8718 28.094 3.9839 83.304 14.193 118.91 0.35381-0.73724 0.70869-1.4503 1.0625-2.1875-0.67933-41.416-13.829-77.9-15.162-116.91z" fill="#78540a"/>
   <path d="m385.91 524.05c-1.3469 2.7256-2.7202 5.4759-4 8.125-3.0152 39.542 10.055 83.654 19.434 110.42 0.66661-1.3919 1.3302-2.7898 2-4.1875-3.2103-36.596-15.351-76.161-17.434-114.36z" fill="#78540a"/>
   <path d="m372.38 553.41c-0.28914 0.73744-0.56234 1.4826-0.84375 2.2188-7.5497 42.716 9.2627 75.497 21.906 103.47 0.34957-0.73257 0.67985-1.389 1.0312-2.125-5.8779-37.077-21.424-59.71-22.094-103.56z" fill="#78540a"/>
   <path d="m365.75 572.31c-0.92977 3.0034-1.8199 6.0009-2.625 8.9688-5.1626 42.622 10.731 68.437 23.125 92.938l1.1875-2.5c-6.0765-31.692-24.511-53.243-21.688-99.406z" fill="#78540a"/>
   <path d="m358.47 601.69c-1.5394 8.355-2.583 16.482-3.1875 24.344 0.97514 29.285 12.526 48.765 22.781 65.469 0.35444-0.75403 0.70322-1.5181 1.0625-2.2812-7.8642-23.213-22.712-40.577-20.656-87.531z" fill="#78540a"/>
   <path d="m456.16 400.73c-0.14808 0.28072-0.31955 0.56128-0.46875 0.84375 15.556 28.793 15.438 53.158 12.215 99.205 0.48141-1.2433 0.92689-2.4788 1.375-3.7188 9.3259-55.614 6.8103-71.775-13.122-96.33z" fill="#78540a"/>
   <path d="m464.94 385.13c-0.11297 0.22283-0.19829 0.43153-0.3125 0.65625 11.704 21.746 15.543 38.857 16.202 64.799 0.70072-11.92-0.94203-28.063-1.9546-39.772-3.6852-10.948-6.3295-15.369-13.935-25.682z" fill="#78540a"/>
   <path d="m354.66 642.72c8e-3 2.6187 0.0471 5.2155 0.15625 7.75 3.619 19.744 7.6206 39.526 17.906 52.5 1.2461-2.6778 2.4856-5.3578 3.8125-8.1875-12.62-12.567-16.387-32.526-21.875-52.062z" fill="#78540a"/>
  </g>
  <g transform="translate(21.075 1257.4)">
   <path d="m370 708.79c28.433-61.519 83.816-173.78 96.429-204.29 20.825-50.373 18.793-96.016 10.364-142.84-12.584 30.668-72.171 120.93-100.6 182.45-29.854 68.804-25.512 133.42-6.1891 164.68z" fill="url(#a)"/>
   <path d="m408.04 483.28c-0.40901 0.77359-0.81105 1.5396-1.2188 2.3125 2.9276 35.42 9.1539 75.995 15.925 112.35 0.18958-0.39519 0.40453-0.79302 0.59375-1.1875 0.41156-43.127-6.3816-82.448-15.3-113.47z" fill="#78540a"/>
   <path d="m421.08 460.57c-0.42848 0.79704-0.85231 1.5762-1.2812 2.375 5.7147 36.81 10.5 75.302 11.327 117.56 0.26397-0.55169 0.51858-1.1071 0.78125-1.6562 3.2925-43.278 0.39662-85.679-10.827-118.27z" fill="#78540a"/>
   <path d="m429.03 447.04c-0.15515 0.28729-0.31338 0.58725-0.46875 0.875 7.716 32.724 14.58 65.883 12.937 110.74 1.0065-2.1184 1.9675-4.1081 2.9375-6.1562 7.6856-44.746-2.5156-75.818-15.406-105.46z" fill="#78540a"/>
   <path d="m439.47 429.23c-0.21125 0.39137-0.41286 0.7946-0.625 1.1875 7.6122 35.801 16.841 58.488 16.282 99.33 0.40309-0.86892 0.73604-1.6269 1.125-2.4688 5.99-46.729-5.4764-70.98-16.782-98.049z" fill="#78540a"/>
   <path d="m447.8 415.12-0.25 0.46875c12.146 33.405 14.907 55.505 15.329 97.158 0.76747-1.7313 1.428-3.2418 2.0625-4.7188 4.8738-47.93-4.7054-69.448-17.141-92.908z" fill="#78540a"/>
   <path d="m396.4 504.37c-0.0318 0.0618-0.062 0.12575-0.0937 0.1875-6.8718 28.094 3.9839 83.304 14.193 118.91 0.35381-0.73724 0.70869-1.4503 1.0625-2.1875-0.67933-41.416-13.829-77.9-15.162-116.91z" fill="#78540a"/>
   <path d="m385.91 524.05c-1.3469 2.7256-2.7202 5.4759-4 8.125-3.0152 39.542 10.055 83.654 19.434 110.42 0.66661-1.3919 1.3302-2.7898 2-4.1875-3.2103-36.596-15.351-76.161-17.434-114.36z" fill="#78540a"/>
   <path d="m372.38 553.41c-0.28914 0.73744-0.56234 1.4826-0.84375 2.2188-7.5497 42.716 9.2627 75.497 21.906 103.47 0.34957-0.73257 0.67985-1.389 1.0312-2.125-5.8779-37.077-21.424-59.71-22.094-103.56z" fill="#78540a"/>
   <path d="m365.75 572.31c-0.92977 3.0034-1.8199 6.0009-2.625 8.9688-5.1626 42.622 10.731 68.437 23.125 92.938l1.1875-2.5c-6.0765-31.692-24.511-53.243-21.688-99.406z" fill="#78540a"/>
   <path d="m358.47 601.69c-1.5394 8.355-2.583 16.482-3.1875 24.344 0.97514 29.285 12.526 48.765 22.781 65.469 0.35444-0.75403 0.70322-1.5181 1.0625-2.2812-7.8642-23.213-22.712-40.577-20.656-87.531z" fill="#78540a"/>
   <path d="m456.16 400.73c-0.14808 0.28072-0.31955 0.56128-0.46875 0.84375 15.556 28.793 15.438 53.158 12.215 99.205 0.48141-1.2433 0.92689-2.4788 1.375-3.7188 9.3259-55.614 6.8103-71.775-13.122-96.33z" fill="#78540a"/>
   <path d="m464.94 385.13c-0.11297 0.22283-0.19829 0.43153-0.3125 0.65625 11.704 21.746 15.543 38.857 16.202 64.799 0.70072-11.92-0.94203-28.063-1.9546-39.772-3.6852-10.948-6.3295-15.369-13.935-25.682z" fill="#78540a"/>
   <path d="m354.66 642.72c8e-3 2.6187 0.0471 5.2155 0.15625 7.75 3.619 19.744 7.6206 39.526 17.906 52.5 1.2461-2.6778 2.4856-5.3578 3.8125-8.1875-12.62-12.567-16.387-32.526-21.875-52.062z" fill="#78540a"/>
  </g>
  <g transform="translate(21.075 1369)">
   <path d="m370 708.79c28.433-61.519 83.816-173.78 96.429-204.29 20.825-50.373 18.793-96.016 10.364-142.84-12.584 30.668-72.171 120.93-100.6 182.45-29.854 68.804-25.512 133.42-6.1891 164.68z" fill="url(#a)"/>
   <path d="m408.04 483.28c-0.40901 0.77359-0.81105 1.5396-1.2188 2.3125 2.9276 35.42 9.1539 75.995 15.925 112.35 0.18958-0.39519 0.40453-0.79302 0.59375-1.1875 0.41156-43.127-6.3816-82.448-15.3-113.47z" fill="#78540a"/>
   <path d="m421.08 460.57c-0.42848 0.79704-0.85231 1.5762-1.2812 2.375 5.7147 36.81 10.5 75.302 11.327 117.56 0.26397-0.55169 0.51858-1.1071 0.78125-1.6562 3.2925-43.278 0.39662-85.679-10.827-118.27z" fill="#78540a"/>
   <path d="m429.03 447.04c-0.15515 0.28729-0.31338 0.58725-0.46875 0.875 7.716 32.724 14.58 65.883 12.937 110.74 1.0065-2.1184 1.9675-4.1081 2.9375-6.1562 7.6856-44.746-2.5156-75.818-15.406-105.46z" fill="#78540a"/>
   <path d="m439.47 429.23c-0.21125 0.39137-0.41286 0.7946-0.625 1.1875 7.6122 35.801 16.841 58.488 16.282 99.33 0.40309-0.86892 0.73604-1.6269 1.125-2.4688 5.99-46.729-5.4764-70.98-16.782-98.049z" fill="#78540a"/>
   <path d="m447.8 415.12-0.25 0.46875c12.146 33.405 14.907 55.505 15.329 97.158 0.76747-1.7313 1.428-3.2418 2.0625-4.7188 4.8738-47.93-4.7054-69.448-17.141-92.908z" fill="#78540a"/>
   <path d="m396.4 504.37c-0.0318 0.0618-0.062 0.12575-0.0937 0.1875-6.8718 28.094 3.9839 83.304 14.193 118.91 0.35381-0.73724 0.70869-1.4503 1.0625-2.1875-0.67933-41.416-13.829-77.9-15.162-116.91z" fill="#78540a"/>
   <path d="m385.91 524.05c-1.3469 2.7256-2.7202 5.4759-4 8.125-3.0152 39.542 10.055 83.654 19.434 110.42 0.66661-1.3919 1.3302-2.7898 2-4.1875-3.2103-36.596-15.351-76.161-17.434-114.36z" fill="#78540a"/>
   <path d="m372.38 553.41c-0.28914 0.73744-0.56234 1.4826-0.84375 2.2188-7.5497 42.716 9.2627 75.497 21.906 103.47 0.34957-0.73257 0.67985-1.389 1.0312-2.125-5.8779-37.077-21.424-59.71-22.094-103.56z" fill="#78540a"/>
   <path d="m365.75 572.31c-0.92977 3.0034-1.8199 6.0009-2.625 8.9688-5.1626 42.622 10.731 68.437 23.125 92.938l1.1875-2.5c-6.0765-31.692-24.511-53.243-21.688-99.406z" fill="#78540a"/>
   <path d="m358.47 601.69c-1.5394 8.355-2.583 16.482-3.1875 24.344 0.97514 29.285 12.526 48.765 22.781 65.469 0.35444-0.75403 0.70322-1.5181 1.0625-2.2812-7.8642-23.213-22.712-40.577-20.656-87.531z" fill="#78540a"/>
   <path d="m456.16 400.73c-0.14808 0.28072-0.31955 0.56128-0.46875 0.84375 15.556 28.793 15.438 53.158 12.215 99.205 0.48141-1.2433 0.92689-2.4788 1.375-3.7188 9.3259-55.614 6.8103-71.775-13.122-96.33z" fill="#78540a"/>
   <path d="m464.94 385.13c-0.11297 0.22283-0.19829 0.43153-0.3125 0.65625 11.704 21.746 15.543 38.857 16.202 64.799 0.70072-11.92-0.94203-28.063-1.9546-39.772-3.6852-10.948-6.3295-15.369-13.935-25.682z" fill="#78540a"/>
   <path d="m354.66 642.72c8e-3 2.6187 0.0471 5.2155 0.15625 7.75 3.619 19.744 7.6206 39.526 17.906 52.5 1.2461-2.6778 2.4856-5.3578 3.8125-8.1875-12.62-12.567-16.387-32.526-21.875-52.062z" fill="#78540a"/>
  </g>
  <g transform="translate(21.075 1481.4)">
   <path d="m370 708.79c28.433-61.519 83.816-173.78 96.429-204.29 20.825-50.373 18.793-96.016 10.364-142.84-12.584 30.668-72.171 120.93-100.6 182.45-29.854 68.804-25.512 133.42-6.1891 164.68z" fill="url(#a)"/>
   <path d="m408.04 483.28c-0.40901 0.77359-0.81105 1.5396-1.2188 2.3125 2.9276 35.42 9.1539 75.995 15.925 112.35 0.18958-0.39519 0.40453-0.79302 0.59375-1.1875 0.41156-43.127-6.3816-82.448-15.3-113.47z" fill="#78540a"/>
   <path d="m421.08 460.57c-0.42848 0.79704-0.85231 1.5762-1.2812 2.375 5.7147 36.81 10.5 75.302 11.327 117.56 0.26397-0.55169 0.51858-1.1071 0.78125-1.6562 3.2925-43.278 0.39662-85.679-10.827-118.27z" fill="#78540a"/>
   <path d="m429.03 447.04c-0.15515 0.28729-0.31338 0.58725-0.46875 0.875 7.716 32.724 14.58 65.883 12.937 110.74 1.0065-2.1184 1.9675-4.1081 2.9375-6.1562 7.6856-44.746-2.5156-75.818-15.406-105.46z" fill="#78540a"/>
   <path d="m439.47 429.23c-0.21125 0.39137-0.41286 0.7946-0.625 1.1875 7.6122 35.801 16.841 58.488 16.282 99.33 0.40309-0.86892 0.73604-1.6269 1.125-2.4688 5.99-46.729-5.4764-70.98-16.782-98.049z" fill="#78540a"/>
   <path d="m447.8 415.12-0.25 0.46875c12.146 33.405 14.907 55.505 15.329 97.158 0.76747-1.7313 1.428-3.2418 2.0625-4.7188 4.8738-47.93-4.7054-69.448-17.141-92.908z" fill="#78540a"/>
   <path d="m396.4 504.37c-0.0318 0.0618-0.062 0.12575-0.0937 0.1875-6.8718 28.094 3.9839 83.304 14.193 118.91 0.35381-0.73724 0.70869-1.4503 1.0625-2.1875-0.67933-41.416-13.829-77.9-15.162-116.91z" fill="#78540a"/>
   <path d="m385.91 524.05c-1.3469 2.7256-2.7202 5.4759-4 8.125-3.0152 39.542 10.055 83.654 19.434 110.42 0.66661-1.3919 1.3302-2.7898 2-4.1875-3.2103-36.596-15.351-76.161-17.434-114.36z" fill="#78540a"/>
   <path d="m372.38 553.41c-0.28914 0.73744-0.56234 1.4826-0.84375 2.2188-7.5497 42.716 9.2627 75.497 21.906 103.47 0.34957-0.73257 0.67985-1.389 1.0312-2.125-5.8779-37.077-21.424-59.71-22.094-103.56z" fill="#78540a"/>
   <path d="m365.75 572.31c-0.92977 3.0034-1.8199 6.0009-2.625 8.9688-5.1626 42.622 10.731 68.437 23.125 92.938l1.1875-2.5c-6.0765-31.692-24.511-53.243-21.688-99.406z" fill="#78540a"/>
   <path d="m358.47 601.69c-1.5394 8.355-2.583 16.482-3.1875 24.344 0.97514 29.285 12.526 48.765 22.781 65.469 0.35444-0.75403 0.70322-1.5181 1.0625-2.2812-7.8642-23.213-22.712-40.577-20.656-87.531z" fill="#78540a"/>
   <path d="m456.16 400.73c-0.14808 0.28072-0.31955 0.56128-0.46875 0.84375 15.556 28.793 15.438 53.158 12.215 99.205 0.48141-1.2433 0.92689-2.4788 1.375-3.7188 9.3259-55.614 6.8103-71.775-13.122-96.33z" fill="#78540a"/>
   <path d="m464.94 385.13c-0.11297 0.22283-0.19829 0.43153-0.3125 0.65625 11.704 21.746 15.543 38.857 16.202 64.799 0.70072-11.92-0.94203-28.063-1.9546-39.772-3.6852-10.948-6.3295-15.369-13.935-25.682z" fill="#78540a"/>
   <path d="m354.66 642.72c8e-3 2.6187 0.0471 5.2155 0.15625 7.75 3.619 19.744 7.6206 39.526 17.906 52.5 1.2461-2.6778 2.4856-5.3578 3.8125-8.1875-12.62-12.567-16.387-32.526-21.875-52.062z" fill="#78540a"/>
  </g>
  <g transform="translate(21.075 1593)">
   <path d="m370 708.79c28.433-61.519 83.816-173.78 96.429-204.29 20.825-50.373 18.793-96.016 10.364-142.84-12.584 30.668-72.171 120.93-100.6 182.45-29.854 68.804-25.512 133.42-6.1891 164.68z" fill="url(#a)"/>
   <path d="m408.04 483.28c-0.40901 0.77359-0.81105 1.5396-1.2188 2.3125 2.9276 35.42 9.1539 75.995 15.925 112.35 0.18958-0.39519 0.40453-0.79302 0.59375-1.1875 0.41156-43.127-6.3816-82.448-15.3-113.47z" fill="#78540a"/>
   <path d="m421.08 460.57c-0.42848 0.79704-0.85231 1.5762-1.2812 2.375 5.7147 36.81 10.5 75.302 11.327 117.56 0.26397-0.55169 0.51858-1.1071 0.78125-1.6562 3.2925-43.278 0.39662-85.679-10.827-118.27z" fill="#78540a"/>
   <path d="m429.03 447.04c-0.15515 0.28729-0.31338 0.58725-0.46875 0.875 7.716 32.724 14.58 65.883 12.937 110.74 1.0065-2.1184 1.9675-4.1081 2.9375-6.1562 7.6856-44.746-2.5156-75.818-15.406-105.46z" fill="#78540a"/>
   <path d="m439.47 429.23c-0.21125 0.39137-0.41286 0.7946-0.625 1.1875 7.6122 35.801 16.841 58.488 16.282 99.33 0.40309-0.86892 0.73604-1.6269 1.125-2.4688 5.99-46.729-5.4764-70.98-16.782-98.049z" fill="#78540a"/>
   <path d="m447.8 415.12-0.25 0.46875c12.146 33.405 14.907 55.505 15.329 97.158 0.76747-1.7313 1.428-3.2418 2.0625-4.7188 4.8738-47.93-4.7054-69.448-17.141-92.908z" fill="#78540a"/>
   <path d="m396.4 504.37c-0.0318 0.0618-0.062 0.12575-0.0937 0.1875-6.8718 28.094 3.9839 83.304 14.193 118.91 0.35381-0.73724 0.70869-1.4503 1.0625-2.1875-0.67933-41.416-13.829-77.9-15.162-116.91z" fill="#78540a"/>
   <path d="m385.91 524.05c-1.3469 2.7256-2.7202 5.4759-4 8.125-3.0152 39.542 10.055 83.654 19.434 110.42 0.66661-1.3919 1.3302-2.7898 2-4.1875-3.2103-36.596-15.351-76.161-17.434-114.36z" fill="#78540a"/>
   <path d="m372.38 553.41c-0.28914 0.73744-0.56234 1.4826-0.84375 2.2188-7.5497 42.716 9.2627 75.497 21.906 103.47 0.34957-0.73257 0.67985-1.389 1.0312-2.125-5.8779-37.077-21.424-59.71-22.094-103.56z" fill="#78540a"/>
   <path d="m365.75 572.31c-0.92977 3.0034-1.8199 6.0009-2.625 8.9688-5.1626 42.622 10.731 68.437 23.125 92.938l1.1875-2.5c-6.0765-31.692-24.511-53.243-21.688-99.406z" fill="#78540a"/>
   <path d="m358.47 601.69c-1.5394 8.355-2.583 16.482-3.1875 24.344 0.97514 29.285 12.526 48.765 22.781 65.469 0.35444-0.75403 0.70322-1.5181 1.0625-2.2812-7.8642-23.213-22.712-40.577-20.656-87.531z" fill="#78540a"/>
   <path d="m456.16 400.73c-0.14808 0.28072-0.31955 0.56128-0.46875 0.84375 15.556 28.793 15.438 53.158 12.215 99.205 0.48141-1.2433 0.92689-2.4788 1.375-3.7188 9.3259-55.614 6.8103-71.775-13.122-96.33z" fill="#78540a"/>
   <path d="m464.94 385.13c-0.11297 0.22283-0.19829 0.43153-0.3125 0.65625 11.704 21.746 15.543 38.857 16.202 64.799 0.70072-11.92-0.94203-28.063-1.9546-39.772-3.6852-10.948-6.3295-15.369-13.935-25.682z" fill="#78540a"/>
   <path d="m354.66 642.72c8e-3 2.6187 0.0471 5.2155 0.15625 7.75 3.619 19.744 7.6206 39.526 17.906 52.5 1.2461-2.6778 2.4856-5.3578 3.8125-8.1875-12.62-12.567-16.387-32.526-21.875-52.062z" fill="#78540a"/>
  </g>
  <g transform="translate(21.075 1703.9)">
   <path d="m370 708.79c28.433-61.519 83.816-173.78 96.429-204.29 20.825-50.373 18.793-96.016 10.364-142.84-12.584 30.668-72.171 120.93-100.6 182.45-29.854 68.804-25.512 133.42-6.1891 164.68z" fill="url(#a)"/>
   <path d="m408.04 483.28c-0.40901 0.77359-0.81105 1.5396-1.2188 2.3125 2.9276 35.42 9.1539 75.995 15.925 112.35 0.18958-0.39519 0.40453-0.79302 0.59375-1.1875 0.41156-43.127-6.3816-82.448-15.3-113.47z" fill="#78540a"/>
   <path d="m421.08 460.57c-0.42848 0.79704-0.85231 1.5762-1.2812 2.375 5.7147 36.81 10.5 75.302 11.327 117.56 0.26397-0.55169 0.51858-1.1071 0.78125-1.6562 3.2925-43.278 0.39662-85.679-10.827-118.27z" fill="#78540a"/>
   <path d="m429.03 447.04c-0.15515 0.28729-0.31338 0.58725-0.46875 0.875 7.716 32.724 14.58 65.883 12.937 110.74 1.0065-2.1184 1.9675-4.1081 2.9375-6.1562 7.6856-44.746-2.5156-75.818-15.406-105.46z" fill="#78540a"/>
   <path d="m439.47 429.23c-0.21125 0.39137-0.41286 0.7946-0.625 1.1875 7.6122 35.801 16.841 58.488 16.282 99.33 0.40309-0.86892 0.73604-1.6269 1.125-2.4688 5.99-46.729-5.4764-70.98-16.782-98.049z" fill="#78540a"/>
   <path d="m447.8 415.12-0.25 0.46875c12.146 33.405 14.907 55.505 15.329 97.158 0.76747-1.7313 1.428-3.2418 2.0625-4.7188 4.8738-47.93-4.7054-69.448-17.141-92.908z" fill="#78540a"/>
   <path d="m396.4 504.37c-0.0318 0.0618-0.062 0.12575-0.0937 0.1875-6.8718 28.094 3.9839 83.304 14.193 118.91 0.35381-0.73724 0.70869-1.4503 1.0625-2.1875-0.67933-41.416-13.829-77.9-15.162-116.91z" fill="#78540a"/>
   <path d="m385.91 524.05c-1.3469 2.7256-2.7202 5.4759-4 8.125-3.0152 39.542 10.055 83.654 19.434 110.42 0.66661-1.3919 1.3302-2.7898 2-4.1875-3.2103-36.596-15.351-76.161-17.434-114.36z" fill="#78540a"/>
   <path d="m372.38 553.41c-0.28914 0.73744-0.56234 1.4826-0.84375 2.2188-7.5497 42.716 9.2627 75.497 21.906 103.47 0.34957-0.73257 0.67985-1.389 1.0312-2.125-5.8779-37.077-21.424-59.71-22.094-103.56z" fill="#78540a"/>
   <path d="m365.75 572.31c-0.92977 3.0034-1.8199 6.0009-2.625 8.9688-5.1626 42.622 10.731 68.437 23.125 92.938l1.1875-2.5c-6.0765-31.692-24.511-53.243-21.688-99.406z" fill="#78540a"/>
   <path d="m358.47 601.69c-1.5394 8.355-2.583 16.482-3.1875 24.344 0.97514 29.285 12.526 48.765 22.781 65.469 0.35444-0.75403 0.70322-1.5181 1.0625-2.2812-7.8642-23.213-22.712-40.577-20.656-87.531z" fill="#78540a"/>
   <path d="m456.16 400.73c-0.14808 0.28072-0.31955 0.56128-0.46875 0.84375 15.556 28.793 15.438 53.158 12.215 99.205 0.48141-1.2433 0.92689-2.4788 1.375-3.7188 9.3259-55.614 6.8103-71.775-13.122-96.33z" fill="#78540a"/>
   <path d="m464.94 385.13c-0.11297 0.22283-0.19829 0.43153-0.3125 0.65625 11.704 21.746 15.543 38.857 16.202 64.799 0.70072-11.92-0.94203-28.063-1.9546-39.772-3.6852-10.948-6.3295-15.369-13.935-25.682z" fill="#78540a"/>
   <path d="m354.66 642.72c8e-3 2.6187 0.0471 5.2155 0.15625 7.75 3.619 19.744 7.6206 39.526 17.906 52.5 1.2461-2.6778 2.4856-5.3578 3.8125-8.1875-12.62-12.567-16.387-32.526-21.875-52.062z" fill="#78540a"/>
  </g>
  <g transform="translate(21.075 1814.6)">
   <path d="m370 708.79c28.433-61.519 83.816-173.78 96.429-204.29 20.825-50.373 18.793-96.016 10.364-142.84-12.584 30.668-72.171 120.93-100.6 182.45-29.854 68.804-25.512 133.42-6.1891 164.68z" fill="url(#a)"/>
   <path d="m408.04 483.28c-0.40901 0.77359-0.81105 1.5396-1.2188 2.3125 2.9276 35.42 9.1539 75.995 15.925 112.35 0.18958-0.39519 0.40453-0.79302 0.59375-1.1875 0.41156-43.127-6.3816-82.448-15.3-113.47z" fill="#78540a"/>
   <path d="m421.08 460.57c-0.42848 0.79704-0.85231 1.5762-1.2812 2.375 5.7147 36.81 10.5 75.302 11.327 117.56 0.26397-0.55169 0.51858-1.1071 0.78125-1.6562 3.2925-43.278 0.39662-85.679-10.827-118.27z" fill="#78540a"/>
   <path d="m429.03 447.04c-0.15515 0.28729-0.31338 0.58725-0.46875 0.875 7.716 32.724 14.58 65.883 12.937 110.74 1.0065-2.1184 1.9675-4.1081 2.9375-6.1562 7.6856-44.746-2.5156-75.818-15.406-105.46z" fill="#78540a"/>
   <path d="m439.47 429.23c-0.21125 0.39137-0.41286 0.7946-0.625 1.1875 7.6122 35.801 16.841 58.488 16.282 99.33 0.40309-0.86892 0.73604-1.6269 1.125-2.4688 5.99-46.729-5.4764-70.98-16.782-98.049z" fill="#78540a"/>
   <path d="m447.8 415.12-0.25 0.46875c12.146 33.405 14.907 55.505 15.329 97.158 0.76747-1.7313 1.428-3.2418 2.0625-4.7188 4.8738-47.93-4.7054-69.448-17.141-92.908z" fill="#78540a"/>
   <path d="m396.4 504.37c-0.0318 0.0618-0.062 0.12575-0.0937 0.1875-6.8718 28.094 3.9839 83.304 14.193 118.91 0.35381-0.73724 0.70869-1.4503 1.0625-2.1875-0.67933-41.416-13.829-77.9-15.162-116.91z" fill="#78540a"/>
   <path d="m385.91 524.05c-1.3469 2.7256-2.7202 5.4759-4 8.125-3.0152 39.542 10.055 83.654 19.434 110.42 0.66661-1.3919 1.3302-2.7898 2-4.1875-3.2103-36.596-15.351-76.161-17.434-114.36z" fill="#78540a"/>
   <path d="m372.38 553.41c-0.28914 0.73744-0.56234 1.4826-0.84375 2.2188-7.5497 42.716 9.2627 75.497 21.906 103.47 0.34957-0.73257 0.67985-1.389 1.0312-2.125-5.8779-37.077-21.424-59.71-22.094-103.56z" fill="#78540a"/>
   <path d="m365.75 572.31c-0.92977 3.0034-1.8199 6.0009-2.625 8.9688-5.1626 42.622 10.731 68.437 23.125 92.938l1.1875-2.5c-6.0765-31.692-24.511-53.243-21.688-99.406z" fill="#78540a"/>
   <path d="m358.47 601.69c-1.5394 8.355-2.583 16.482-3.1875 24.344 0.97514 29.285 12.526 48.765 22.781 65.469 0.35444-0.75403 0.70322-1.5181 1.0625-2.2812-7.8642-23.213-22.712-40.577-20.656-87.531z" fill="#78540a"/>
   <path d="m456.16 400.73c-0.14808 0.28072-0.31955 0.56128-0.46875 0.84375 15.556 28.793 15.438 53.158 12.215 99.205 0.48141-1.2433 0.92689-2.4788 1.375-3.7188 9.3259-55.614 6.8103-71.775-13.122-96.33z" fill="#78540a"/>
   <path d="m464.94 385.13c-0.11297 0.22283-0.19829 0.43153-0.3125 0.65625 11.704 21.746 15.543 38.857 16.202 64.799 0.70072-11.92-0.94203-28.063-1.9546-39.772-3.6852-10.948-6.3295-15.369-13.935-25.682z" fill="#78540a"/>
   <path d="m354.66 642.72c8e-3 2.6187 0.0471 5.2155 0.15625 7.75 3.619 19.744 7.6206 39.526 17.906 52.5 1.2461-2.6778 2.4856-5.3578 3.8125-8.1875-12.62-12.567-16.387-32.526-21.875-52.062z" fill="#78540a"/>
  </g>
  <g transform="translate(21.075 1925.5)">
   <path d="m370 708.79c28.433-61.519 83.816-173.78 96.429-204.29 20.825-50.373 18.793-96.016 10.364-142.84-12.584 30.668-72.171 120.93-100.6 182.45-29.854 68.804-25.512 133.42-6.1891 164.68z" fill="url(#a)"/>
   <path d="m408.04 483.28c-0.40901 0.77359-0.81105 1.5396-1.2188 2.3125 2.9276 35.42 9.1539 75.995 15.925 112.35 0.18958-0.39519 0.40453-0.79302 0.59375-1.1875 0.41156-43.127-6.3816-82.448-15.3-113.47z" fill="#78540a"/>
   <path d="m421.08 460.57c-0.42848 0.79704-0.85231 1.5762-1.2812 2.375 5.7147 36.81 10.5 75.302 11.327 117.56 0.26397-0.55169 0.51858-1.1071 0.78125-1.6562 3.2925-43.278 0.39662-85.679-10.827-118.27z" fill="#78540a"/>
   <path d="m429.03 447.04c-0.15515 0.28729-0.31338 0.58725-0.46875 0.875 7.716 32.724 14.58 65.883 12.937 110.74 1.0065-2.1184 1.9675-4.1081 2.9375-6.1562 7.6856-44.746-2.5156-75.818-15.406-105.46z" fill="#78540a"/>
   <path d="m439.47 429.23c-0.21125 0.39137-0.41286 0.7946-0.625 1.1875 7.6122 35.801 16.841 58.488 16.282 99.33 0.40309-0.86892 0.73604-1.6269 1.125-2.4688 5.99-46.729-5.4764-70.98-16.782-98.049z" fill="#78540a"/>
   <path d="m447.8 415.12-0.25 0.46875c12.146 33.405 14.907 55.505 15.329 97.158 0.76747-1.7313 1.428-3.2418 2.0625-4.7188 4.8738-47.93-4.7054-69.448-17.141-92.908z" fill="#78540a"/>
   <path d="m396.4 504.37c-0.0318 0.0618-0.062 0.12575-0.0937 0.1875-6.8718 28.094 3.9839 83.304 14.193 118.91 0.35381-0.73724 0.70869-1.4503 1.0625-2.1875-0.67933-41.416-13.829-77.9-15.162-116.91z" fill="#78540a"/>
   <path d="m385.91 524.05c-1.3469 2.7256-2.7202 5.4759-4 8.125-3.0152 39.542 10.055 83.654 19.434 110.42 0.66661-1.3919 1.3302-2.7898 2-4.1875-3.2103-36.596-15.351-76.161-17.434-114.36z" fill="#78540a"/>
   <path d="m372.38 553.41c-0.28914 0.73744-0.56234 1.4826-0.84375 2.2188-7.5497 42.716 9.2627 75.497 21.906 103.47 0.34957-0.73257 0.67985-1.389 1.0312-2.125-5.8779-37.077-21.424-59.71-22.094-103.56z" fill="#78540a"/>
   <path d="m365.75 572.31c-0.92977 3.0034-1.8199 6.0009-2.625 8.9688-5.1626 42.622 10.731 68.437 23.125 92.938l1.1875-2.5c-6.0765-31.692-24.511-53.243-21.688-99.406z" fill="#78540a"/>
   <path d="m358.47 601.69c-1.5394 8.355-2.583 16.482-3.1875 24.344 0.97514 29.285 12.526 48.765 22.781 65.469 0.35444-0.75403 0.70322-1.5181 1.0625-2.2812-7.8642-23.213-22.712-40.577-20.656-87.531z" fill="#78540a"/>
   <path d="m456.16 400.73c-0.14808 0.28072-0.31955 0.56128-0.46875 0.84375 15.556 28.793 15.438 53.158 12.215 99.205 0.48141-1.2433 0.92689-2.4788 1.375-3.7188 9.3259-55.614 6.8103-71.775-13.122-96.33z" fill="#78540a"/>
   <path d="m464.94 385.13c-0.11297 0.22283-0.19829 0.43153-0.3125 0.65625 11.704 21.746 15.543 38.857 16.202 64.799 0.70072-11.92-0.94203-28.063-1.9546-39.772-3.6852-10.948-6.3295-15.369-13.935-25.682z" fill="#78540a"/>
   <path d="m354.66 642.72c8e-3 2.6187 0.0471 5.2155 0.15625 7.75 3.619 19.744 7.6206 39.526 17.906 52.5 1.2461-2.6778 2.4856-5.3578 3.8125-8.1875-12.62-12.567-16.387-32.526-21.875-52.062z" fill="#78540a"/>
  </g>
  <g transform="translate(21.075 2037.1)">
   <path d="m370 708.79c28.433-61.519 83.816-173.78 96.429-204.29 20.825-50.373 18.793-96.016 10.364-142.84-12.584 30.668-72.171 120.93-100.6 182.45-29.854 68.804-25.512 133.42-6.1891 164.68z" fill="url(#a)"/>
   <path d="m408.04 483.28c-0.40901 0.77359-0.81105 1.5396-1.2188 2.3125 2.9276 35.42 9.1539 75.995 15.925 112.35 0.18958-0.39519 0.40453-0.79302 0.59375-1.1875 0.41156-43.127-6.3816-82.448-15.3-113.47z" fill="#78540a"/>
   <path d="m421.08 460.57c-0.42848 0.79704-0.85231 1.5762-1.2812 2.375 5.7147 36.81 10.5 75.302 11.327 117.56 0.26397-0.55169 0.51858-1.1071 0.78125-1.6562 3.2925-43.278 0.39662-85.679-10.827-118.27z" fill="#78540a"/>
   <path d="m429.03 447.04c-0.15515 0.28729-0.31338 0.58725-0.46875 0.875 7.716 32.724 14.58 65.883 12.937 110.74 1.0065-2.1184 1.9675-4.1081 2.9375-6.1562 7.6856-44.746-2.5156-75.818-15.406-105.46z" fill="#78540a"/>
   <path d="m439.47 429.23c-0.21125 0.39137-0.41286 0.7946-0.625 1.1875 7.6122 35.801 16.841 58.488 16.282 99.33 0.40309-0.86892 0.73604-1.6269 1.125-2.4688 5.99-46.729-5.4764-70.98-16.782-98.049z" fill="#78540a"/>
   <path d="m447.8 415.12-0.25 0.46875c12.146 33.405 14.907 55.505 15.329 97.158 0.76747-1.7313 1.428-3.2418 2.0625-4.7188 4.8738-47.93-4.7054-69.448-17.141-92.908z" fill="#78540a"/>
   <path d="m396.4 504.37c-0.0318 0.0618-0.062 0.12575-0.0937 0.1875-6.8718 28.094 3.9839 83.304 14.193 118.91 0.35381-0.73724 0.70869-1.4503 1.0625-2.1875-0.67933-41.416-13.829-77.9-15.162-116.91z" fill="#78540a"/>
   <path d="m385.91 524.05c-1.3469 2.7256-2.7202 5.4759-4 8.125-3.0152 39.542 10.055 83.654 19.434 110.42 0.66661-1.3919 1.3302-2.7898 2-4.1875-3.2103-36.596-15.351-76.161-17.434-114.36z" fill="#78540a"/>
   <path d="m372.38 553.41c-0.28914 0.73744-0.56234 1.4826-0.84375 2.2188-7.5497 42.716 9.2627 75.497 21.906 103.47 0.34957-0.73257 0.67985-1.389 1.0312-2.125-5.8779-37.077-21.424-59.71-22.094-103.56z" fill="#78540a"/>
   <path d="m365.75 572.31c-0.92977 3.0034-1.8199 6.0009-2.625 8.9688-5.1626 42.622 10.731 68.437 23.125 92.938l1.1875-2.5c-6.0765-31.692-24.511-53.243-21.688-99.406z" fill="#78540a"/>
   <path d="m358.47 601.69c-1.5394 8.355-2.583 16.482-3.1875 24.344 0.97514 29.285 12.526 48.765 22.781 65.469 0.35444-0.75403 0.70322-1.5181 1.0625-2.2812-7.8642-23.213-22.712-40.577-20.656-87.531z" fill="#78540a"/>
   <path d="m456.16 400.73c-0.14808 0.28072-0.31955 0.56128-0.46875 0.84375 15.556 28.793 15.438 53.158 12.215 99.205 0.48141-1.2433 0.92689-2.4788 1.375-3.7188 9.3259-55.614 6.8103-71.775-13.122-96.33z" fill="#78540a"/>
   <path d="m464.94 385.13c-0.11297 0.22283-0.19829 0.43153-0.3125 0.65625 11.704 21.746 15.543 38.857 16.202 64.799 0.70072-11.92-0.94203-28.063-1.9546-39.772-3.6852-10.948-6.3295-15.369-13.935-25.682z" fill="#78540a"/>
   <path d="m354.66 642.72c8e-3 2.6187 0.0471 5.2155 0.15625 7.75 3.619 19.744 7.6206 39.526 17.906 52.5 1.2461-2.6778 2.4856-5.3578 3.8125-8.1875-12.62-12.567-16.387-32.526-21.875-52.062z" fill="#78540a"/>
  </g>
  <g transform="translate(21.075 2150)">
   <path d="m370 708.79c28.433-61.519 83.816-173.78 96.429-204.29 20.825-50.373 18.793-96.016 10.364-142.84-12.584 30.668-72.171 120.93-100.6 182.45-29.854 68.804-25.512 133.42-6.1891 164.68z" fill="url(#a)"/>
   <path d="m408.04 483.28c-0.40901 0.77359-0.81105 1.5396-1.2188 2.3125 2.9276 35.42 9.1539 75.995 15.925 112.35 0.18958-0.39519 0.40453-0.79302 0.59375-1.1875 0.41156-43.127-6.3816-82.448-15.3-113.47z" fill="#78540a"/>
   <path d="m421.08 460.57c-0.42848 0.79704-0.85231 1.5762-1.2812 2.375 5.7147 36.81 10.5 75.302 11.327 117.56 0.26397-0.55169 0.51858-1.1071 0.78125-1.6562 3.2925-43.278 0.39662-85.679-10.827-118.27z" fill="#78540a"/>
   <path d="m429.03 447.04c-0.15515 0.28729-0.31338 0.58725-0.46875 0.875 7.716 32.724 14.58 65.883 12.937 110.74 1.0065-2.1184 1.9675-4.1081 2.9375-6.1562 7.6856-44.746-2.5156-75.818-15.406-105.46z" fill="#78540a"/>
   <path d="m439.47 429.23c-0.21125 0.39137-0.41286 0.7946-0.625 1.1875 7.6122 35.801 16.841 58.488 16.282 99.33 0.40309-0.86892 0.73604-1.6269 1.125-2.4688 5.99-46.729-5.4764-70.98-16.782-98.049z" fill="#78540a"/>
   <path d="m447.8 415.12-0.25 0.46875c12.146 33.405 14.907 55.505 15.329 97.158 0.76747-1.7313 1.428-3.2418 2.0625-4.7188 4.8738-47.93-4.7054-69.448-17.141-92.908z" fill="#78540a"/>
   <path d="m396.4 504.37c-0.0318 0.0618-0.062 0.12575-0.0937 0.1875-6.8718 28.094 3.9839 83.304 14.193 118.91 0.35381-0.73724 0.70869-1.4503 1.0625-2.1875-0.67933-41.416-13.829-77.9-15.162-116.91z" fill="#78540a"/>
   <path d="m385.91 524.05c-1.3469 2.7256-2.7202 5.4759-4 8.125-3.0152 39.542 10.055 83.654 19.434 110.42 0.66661-1.3919 1.3302-2.7898 2-4.1875-3.2103-36.596-15.351-76.161-17.434-114.36z" fill="#78540a"/>
   <path d="m372.38 553.41c-0.28914 0.73744-0.56234 1.4826-0.84375 2.2188-7.5497 42.716 9.2627 75.497 21.906 103.47 0.34957-0.73257 0.67985-1.389 1.0312-2.125-5.8779-37.077-21.424-59.71-22.094-103.56z" fill="#78540a"/>
   <path d="m365.75 572.31c-0.92977 3.0034-1.8199 6.0009-2.625 8.9688-5.1626 42.622 10.731 68.437 23.125 92.938l1.1875-2.5c-6.0765-31.692-24.511-53.243-21.688-99.406z" fill="#78540a"/>
   <path d="m358.47 601.69c-1.5394 8.355-2.583 16.482-3.1875 24.344 0.97514 29.285 12.526 48.765 22.781 65.469 0.35444-0.75403 0.70322-1.5181 1.0625-2.2812-7.8642-23.213-22.712-40.577-20.656-87.531z" fill="#78540a"/>
   <path d="m456.16 400.73c-0.14808 0.28072-0.31955 0.56128-0.46875 0.84375 15.556 28.793 15.438 53.158 12.215 99.205 0.48141-1.2433 0.92689-2.4788 1.375-3.7188 9.3259-55.614 6.8103-71.775-13.122-96.33z" fill="#78540a"/>
   <path d="m464.94 385.13c-0.11297 0.22283-0.19829 0.43153-0.3125 0.65625 11.704 21.746 15.543 38.857 16.202 64.799 0.70072-11.92-0.94203-28.063-1.9546-39.772-3.6852-10.948-6.3295-15.369-13.935-25.682z" fill="#78540a"/>
   <path d="m354.66 642.72c8e-3 2.6187 0.0471 5.2155 0.15625 7.75 3.619 19.744 7.6206 39.526 17.906 52.5 1.2461-2.6778 2.4856-5.3578 3.8125-8.1875-12.62-12.567-16.387-32.526-21.875-52.062z" fill="#78540a"/>
  </g>
  <g transform="translate(21.075 2261.7)">
   <path d="m370 708.79c28.433-61.519 83.816-173.78 96.429-204.29 20.825-50.373 18.793-96.016 10.364-142.84-12.584 30.668-72.171 120.93-100.6 182.45-29.854 68.804-25.512 133.42-6.1891 164.68z" fill="url(#a)"/>
   <path d="m408.04 483.28c-0.40901 0.77359-0.81105 1.5396-1.2188 2.3125 2.9276 35.42 9.1539 75.995 15.925 112.35 0.18958-0.39519 0.40453-0.79302 0.59375-1.1875 0.41156-43.127-6.3816-82.448-15.3-113.47z" fill="#78540a"/>
   <path d="m421.08 460.57c-0.42848 0.79704-0.85231 1.5762-1.2812 2.375 5.7147 36.81 10.5 75.302 11.327 117.56 0.26397-0.55169 0.51858-1.1071 0.78125-1.6562 3.2925-43.278 0.39662-85.679-10.827-118.27z" fill="#78540a"/>
   <path d="m429.03 447.04c-0.15515 0.28729-0.31338 0.58725-0.46875 0.875 7.716 32.724 14.58 65.883 12.937 110.74 1.0065-2.1184 1.9675-4.1081 2.9375-6.1562 7.6856-44.746-2.5156-75.818-15.406-105.46z" fill="#78540a"/>
   <path d="m439.47 429.23c-0.21125 0.39137-0.41286 0.7946-0.625 1.1875 7.6122 35.801 16.841 58.488 16.282 99.33 0.40309-0.86892 0.73604-1.6269 1.125-2.4688 5.99-46.729-5.4764-70.98-16.782-98.049z" fill="#78540a"/>
   <path d="m447.8 415.12-0.25 0.46875c12.146 33.405 14.907 55.505 15.329 97.158 0.76747-1.7313 1.428-3.2418 2.0625-4.7188 4.8738-47.93-4.7054-69.448-17.141-92.908z" fill="#78540a"/>
   <path d="m396.4 504.37c-0.0318 0.0618-0.062 0.12575-0.0937 0.1875-6.8718 28.094 3.9839 83.304 14.193 118.91 0.35381-0.73724 0.70869-1.4503 1.0625-2.1875-0.67933-41.416-13.829-77.9-15.162-116.91z" fill="#78540a"/>
   <path d="m385.91 524.05c-1.3469 2.7256-2.7202 5.4759-4 8.125-3.0152 39.542 10.055 83.654 19.434 110.42 0.66661-1.3919 1.3302-2.7898 2-4.1875-3.2103-36.596-15.351-76.161-17.434-114.36z" fill="#78540a"/>
   <path d="m372.38 553.41c-0.28914 0.73744-0.56234 1.4826-0.84375 2.2188-7.5497 42.716 9.2627 75.497 21.906 103.47 0.34957-0.73257 0.67985-1.389 1.0312-2.125-5.8779-37.077-21.424-59.71-22.094-103.56z" fill="#78540a"/>
   <path d="m365.75 572.31c-0.92977 3.0034-1.8199 6.0009-2.625 8.9688-5.1626 42.622 10.731 68.437 23.125 92.938l1.1875-2.5c-6.0765-31.692-24.511-53.243-21.688-99.406z" fill="#78540a"/>
   <path d="m358.47 601.69c-1.5394 8.355-2.583 16.482-3.1875 24.344 0.97514 29.285 12.526 48.765 22.781 65.469 0.35444-0.75403 0.70322-1.5181 1.0625-2.2812-7.8642-23.213-22.712-40.577-20.656-87.531z" fill="#78540a"/>
   <path d="m456.16 400.73c-0.14808 0.28072-0.31955 0.56128-0.46875 0.84375 15.556 28.793 15.438 53.158 12.215 99.205 0.48141-1.2433 0.92689-2.4788 1.375-3.7188 9.3259-55.614 6.8103-71.775-13.122-96.33z" fill="#78540a"/>
   <path d="m464.94 385.13c-0.11297 0.22283-0.19829 0.43153-0.3125 0.65625 11.704 21.746 15.543 38.857 16.202 64.799 0.70072-11.92-0.94203-28.063-1.9546-39.772-3.6852-10.948-6.3295-15.369-13.935-25.682z" fill="#78540a"/>
   <path d="m354.66 642.72c8e-3 2.6187 0.0471 5.2155 0.15625 7.75 3.619 19.744 7.6206 39.526 17.906 52.5 1.2461-2.6778 2.4856-5.3578 3.8125-8.1875-12.62-12.567-16.387-32.526-21.875-52.062z" fill="#78540a"/>
  </g>
  <g transform="translate(21.075 2372.4)">
   <path d="m370 708.79c28.433-61.519 83.816-173.78 96.429-204.29 20.825-50.373 18.793-96.016 10.364-142.84-12.584 30.668-72.171 120.93-100.6 182.45-29.854 68.804-25.512 133.42-6.1891 164.68z" fill="url(#a)"/>
   <path d="m408.04 483.28c-0.40901 0.77359-0.81105 1.5396-1.2188 2.3125 2.9276 35.42 9.1539 75.995 15.925 112.35 0.18958-0.39519 0.40453-0.79302 0.59375-1.1875 0.41156-43.127-6.3816-82.448-15.3-113.47z" fill="#78540a"/>
   <path d="m421.08 460.57c-0.42848 0.79704-0.85231 1.5762-1.2812 2.375 5.7147 36.81 10.5 75.302 11.327 117.56 0.26397-0.55169 0.51858-1.1071 0.78125-1.6562 3.2925-43.278 0.39662-85.679-10.827-118.27z" fill="#78540a"/>
   <path d="m429.03 447.04c-0.15515 0.28729-0.31338 0.58725-0.46875 0.875 7.716 32.724 14.58 65.883 12.937 110.74 1.0065-2.1184 1.9675-4.1081 2.9375-6.1562 7.6856-44.746-2.5156-75.818-15.406-105.46z" fill="#78540a"/>
   <path d="m439.47 429.23c-0.21125 0.39137-0.41286 0.7946-0.625 1.1875 7.6122 35.801 16.841 58.488 16.282 99.33 0.40309-0.86892 0.73604-1.6269 1.125-2.4688 5.99-46.729-5.4764-70.98-16.782-98.049z" fill="#78540a"/>
   <path d="m447.8 415.12-0.25 0.46875c12.146 33.405 14.907 55.505 15.329 97.158 0.76747-1.7313 1.428-3.2418 2.0625-4.7188 4.8738-47.93-4.7054-69.448-17.141-92.908z" fill="#78540a"/>
   <path d="m396.4 504.37c-0.0318 0.0618-0.062 0.12575-0.0937 0.1875-6.8718 28.094 3.9839 83.304 14.193 118.91 0.35381-0.73724 0.70869-1.4503 1.0625-2.1875-0.67933-41.416-13.829-77.9-15.162-116.91z" fill="#78540a"/>
   <path d="m385.91 524.05c-1.3469 2.7256-2.7202 5.4759-4 8.125-3.0152 39.542 10.055 83.654 19.434 110.42 0.66661-1.3919 1.3302-2.7898 2-4.1875-3.2103-36.596-15.351-76.161-17.434-114.36z" fill="#78540a"/>
   <path d="m372.38 553.41c-0.28914 0.73744-0.56234 1.4826-0.84375 2.2188-7.5497 42.716 9.2627 75.497 21.906 103.47 0.34957-0.73257 0.67985-1.389 1.0312-2.125-5.8779-37.077-21.424-59.71-22.094-103.56z" fill="#78540a"/>
   <path d="m365.75 572.31c-0.92977 3.0034-1.8199 6.0009-2.625 8.9688-5.1626 42.622 10.731 68.437 23.125 92.938l1.1875-2.5c-6.0765-31.692-24.511-53.243-21.688-99.406z" fill="#78540a"/>
   <path d="m358.47 601.69c-1.5394 8.355-2.583 16.482-3.1875 24.344 0.97514 29.285 12.526 48.765 22.781 65.469 0.35444-0.75403 0.70322-1.5181 1.0625-2.2812-7.8642-23.213-22.712-40.577-20.656-87.531z" fill="#78540a"/>
   <path d="m456.16 400.73c-0.14808 0.28072-0.31955 0.56128-0.46875 0.84375 15.556 28.793 15.438 53.158 12.215 99.205 0.48141-1.2433 0.92689-2.4788 1.375-3.7188 9.3259-55.614 6.8103-71.775-13.122-96.33z" fill="#78540a"/>
   <path d="m464.94 385.13c-0.11297 0.22283-0.19829 0.43153-0.3125 0.65625 11.704 21.746 15.543 38.857 16.202 64.799 0.70072-11.92-0.94203-28.063-1.9546-39.772-3.6852-10.948-6.3295-15.369-13.935-25.682z" fill="#78540a"/>
   <path d="m354.66 642.72c8e-3 2.6187 0.0471 5.2155 0.15625 7.75 3.619 19.744 7.6206 39.526 17.906 52.5 1.2461-2.6778 2.4856-5.3578 3.8125-8.1875-12.62-12.567-16.387-32.526-21.875-52.062z" fill="#78540a"/>
  </g>
  <g transform="translate(21.075 2484.1)">
   <path d="m370 708.79c28.433-61.519 83.816-173.78 96.429-204.29 20.825-50.373 18.793-96.016 10.364-142.84-12.584 30.668-72.171 120.93-100.6 182.45-29.854 68.804-25.512 133.42-6.1891 164.68z" fill="url(#a)"/>
   <path d="m408.04 483.28c-0.40901 0.77359-0.81105 1.5396-1.2188 2.3125 2.9276 35.42 9.1539 75.995 15.925 112.35 0.18958-0.39519 0.40453-0.79302 0.59375-1.1875 0.41156-43.127-6.3816-82.448-15.3-113.47z" fill="#78540a"/>
   <path d="m421.08 460.57c-0.42848 0.79704-0.85231 1.5762-1.2812 2.375 5.7147 36.81 10.5 75.302 11.327 117.56 0.26397-0.55169 0.51858-1.1071 0.78125-1.6562 3.2925-43.278 0.39662-85.679-10.827-118.27z" fill="#78540a"/>
   <path d="m429.03 447.04c-0.15515 0.28729-0.31338 0.58725-0.46875 0.875 7.716 32.724 14.58 65.883 12.937 110.74 1.0065-2.1184 1.9675-4.1081 2.9375-6.1562 7.6856-44.746-2.5156-75.818-15.406-105.46z" fill="#78540a"/>
   <path d="m439.47 429.23c-0.21125 0.39137-0.41286 0.7946-0.625 1.1875 7.6122 35.801 16.841 58.488 16.282 99.33 0.40309-0.86892 0.73604-1.6269 1.125-2.4688 5.99-46.729-5.4764-70.98-16.782-98.049z" fill="#78540a"/>
   <path d="m447.8 415.12-0.25 0.46875c12.146 33.405 14.907 55.505 15.329 97.158 0.76747-1.7313 1.428-3.2418 2.0625-4.7188 4.8738-47.93-4.7054-69.448-17.141-92.908z" fill="#78540a"/>
   <path d="m396.4 504.37c-0.0318 0.0618-0.062 0.12575-0.0937 0.1875-6.8718 28.094 3.9839 83.304 14.193 118.91 0.35381-0.73724 0.70869-1.4503 1.0625-2.1875-0.67933-41.416-13.829-77.9-15.162-116.91z" fill="#78540a"/>
   <path d="m385.91 524.05c-1.3469 2.7256-2.7202 5.4759-4 8.125-3.0152 39.542 10.055 83.654 19.434 110.42 0.66661-1.3919 1.3302-2.7898 2-4.1875-3.2103-36.596-15.351-76.161-17.434-114.36z" fill="#78540a"/>
   <path d="m372.38 553.41c-0.28914 0.73744-0.56234 1.4826-0.84375 2.2188-7.5497 42.716 9.2627 75.497 21.906 103.47 0.34957-0.73257 0.67985-1.389 1.0312-2.125-5.8779-37.077-21.424-59.71-22.094-103.56z" fill="#78540a"/>
   <path d="m365.75 572.31c-0.92977 3.0034-1.8199 6.0009-2.625 8.9688-5.1626 42.622 10.731 68.437 23.125 92.938l1.1875-2.5c-6.0765-31.692-24.511-53.243-21.688-99.406z" fill="#78540a"/>
   <path d="m358.47 601.69c-1.5394 8.355-2.583 16.482-3.1875 24.344 0.97514 29.285 12.526 48.765 22.781 65.469 0.35444-0.75403 0.70322-1.5181 1.0625-2.2812-7.8642-23.213-22.712-40.577-20.656-87.531z" fill="#78540a"/>
   <path d="m456.16 400.73c-0.14808 0.28072-0.31955 0.56128-0.46875 0.84375 15.556 28.793 15.438 53.158 12.215 99.205 0.48141-1.2433 0.92689-2.4788 1.375-3.7188 9.3259-55.614 6.8103-71.775-13.122-96.33z" fill="#78540a"/>
   <path d="m464.94 385.13c-0.11297 0.22283-0.19829 0.43153-0.3125 0.65625 11.704 21.746 15.543 38.857 16.202 64.799 0.70072-11.92-0.94203-28.063-1.9546-39.772-3.6852-10.948-6.3295-15.369-13.935-25.682z" fill="#78540a"/>
   <path d="m354.66 642.72c8e-3 2.6187 0.0471 5.2155 0.15625 7.75 3.619 19.744 7.6206 39.526 17.906 52.5 1.2461-2.6778 2.4856-5.3578 3.8125-8.1875-12.62-12.567-16.387-32.526-21.875-52.062z" fill="#78540a"/>
  </g>
  <g transform="translate(21.075 2595)">
   <path d="m370 708.79c28.433-61.519 83.816-173.78 96.429-204.29 20.825-50.373 18.793-96.016 10.364-142.84-12.584 30.668-72.171 120.93-100.6 182.45-29.854 68.804-25.512 133.42-6.1891 164.68z" fill="url(#a)"/>
   <path d="m408.04 483.28c-0.40901 0.77359-0.81105 1.5396-1.2188 2.3125 2.9276 35.42 9.1539 75.995 15.925 112.35 0.18958-0.39519 0.40453-0.79302 0.59375-1.1875 0.41156-43.127-6.3816-82.448-15.3-113.47z" fill="#78540a"/>
   <path d="m421.08 460.57c-0.42848 0.79704-0.85231 1.5762-1.2812 2.375 5.7147 36.81 10.5 75.302 11.327 117.56 0.26397-0.55169 0.51858-1.1071 0.78125-1.6562 3.2925-43.278 0.39662-85.679-10.827-118.27z" fill="#78540a"/>
   <path d="m429.03 447.04c-0.15515 0.28729-0.31338 0.58725-0.46875 0.875 7.716 32.724 14.58 65.883 12.937 110.74 1.0065-2.1184 1.9675-4.1081 2.9375-6.1562 7.6856-44.746-2.5156-75.818-15.406-105.46z" fill="#78540a"/>
   <path d="m439.47 429.23c-0.21125 0.39137-0.41286 0.7946-0.625 1.1875 7.6122 35.801 16.841 58.488 16.282 99.33 0.40309-0.86892 0.73604-1.6269 1.125-2.4688 5.99-46.729-5.4764-70.98-16.782-98.049z" fill="#78540a"/>
   <path d="m447.8 415.12-0.25 0.46875c12.146 33.405 14.907 55.505 15.329 97.158 0.76747-1.7313 1.428-3.2418 2.0625-4.7188 4.8738-47.93-4.7054-69.448-17.141-92.908z" fill="#78540a"/>
   <path d="m396.4 504.37c-0.0318 0.0618-0.062 0.12575-0.0937 0.1875-6.8718 28.094 3.9839 83.304 14.193 118.91 0.35381-0.73724 0.70869-1.4503 1.0625-2.1875-0.67933-41.416-13.829-77.9-15.162-116.91z" fill="#78540a"/>
   <path d="m385.91 524.05c-1.3469 2.7256-2.7202 5.4759-4 8.125-3.0152 39.542 10.055 83.654 19.434 110.42 0.66661-1.3919 1.3302-2.7898 2-4.1875-3.2103-36.596-15.351-76.161-17.434-114.36z" fill="#78540a"/>
   <path d="m372.38 553.41c-0.28914 0.73744-0.56234 1.4826-0.84375 2.2188-7.5497 42.716 9.2627 75.497 21.906 103.47 0.34957-0.73257 0.67985-1.389 1.0312-2.125-5.8779-37.077-21.424-59.71-22.094-103.56z" fill="#78540a"/>
   <path d="m365.75 572.31c-0.92977 3.0034-1.8199 6.0009-2.625 8.9688-5.1626 42.622 10.731 68.437 23.125 92.938l1.1875-2.5c-6.0765-31.692-24.511-53.243-21.688-99.406z" fill="#78540a"/>
   <path d="m358.47 601.69c-1.5394 8.355-2.583 16.482-3.1875 24.344 0.97514 29.285 12.526 48.765 22.781 65.469 0.35444-0.75403 0.70322-1.5181 1.0625-2.2812-7.8642-23.213-22.712-40.577-20.656-87.531z" fill="#78540a"/>
   <path d="m456.16 400.73c-0.14808 0.28072-0.31955 0.56128-0.46875 0.84375 15.556 28.793 15.438 53.158 12.215 99.205 0.48141-1.2433 0.92689-2.4788 1.375-3.7188 9.3259-55.614 6.8103-71.775-13.122-96.33z" fill="#78540a"/>
   <path d="m464.94 385.13c-0.11297 0.22283-0.19829 0.43153-0.3125 0.65625 11.704 21.746 15.543 38.857 16.202 64.799 0.70072-11.92-0.94203-28.063-1.9546-39.772-3.6852-10.948-6.3295-15.369-13.935-25.682z" fill="#78540a"/>
   <path d="m354.66 642.72c8e-3 2.6187 0.0471 5.2155 0.15625 7.75 3.619 19.744 7.6206 39.526 17.906 52.5 1.2461-2.6778 2.4856-5.3578 3.8125-8.1875-12.62-12.567-16.387-32.526-21.875-52.062z" fill="#78540a"/>
  </g>
  <g transform="translate(21.075 2705.6)">
   <path d="m370 708.79c28.433-61.519 83.816-173.78 96.429-204.29 20.825-50.373 18.793-96.016 10.364-142.84-12.584 30.668-72.171 120.93-100.6 182.45-29.854 68.804-25.512 133.42-6.1891 164.68z" fill="url(#a)"/>
   <path d="m408.04 483.28c-0.40901 0.77359-0.81105 1.5396-1.2188 2.3125 2.9276 35.42 9.1539 75.995 15.925 112.35 0.18958-0.39519 0.40453-0.79302 0.59375-1.1875 0.41156-43.127-6.3816-82.448-15.3-113.47z" fill="#78540a"/>
   <path d="m421.08 460.57c-0.42848 0.79704-0.85231 1.5762-1.2812 2.375 5.7147 36.81 10.5 75.302 11.327 117.56 0.26397-0.55169 0.51858-1.1071 0.78125-1.6562 3.2925-43.278 0.39662-85.679-10.827-118.27z" fill="#78540a"/>
   <path d="m429.03 447.04c-0.15515 0.28729-0.31338 0.58725-0.46875 0.875 7.716 32.724 14.58 65.883 12.937 110.74 1.0065-2.1184 1.9675-4.1081 2.9375-6.1562 7.6856-44.746-2.5156-75.818-15.406-105.46z" fill="#78540a"/>
   <path d="m439.47 429.23c-0.21125 0.39137-0.41286 0.7946-0.625 1.1875 7.6122 35.801 16.841 58.488 16.282 99.33 0.40309-0.86892 0.73604-1.6269 1.125-2.4688 5.99-46.729-5.4764-70.98-16.782-98.049z" fill="#78540a"/>
   <path d="m447.8 415.12-0.25 0.46875c12.146 33.405 14.907 55.505 15.329 97.158 0.76747-1.7313 1.428-3.2418 2.0625-4.7188 4.8738-47.93-4.7054-69.448-17.141-92.908z" fill="#78540a"/>
   <path d="m396.4 504.37c-0.0318 0.0618-0.062 0.12575-0.0937 0.1875-6.8718 28.094 3.9839 83.304 14.193 118.91 0.35381-0.73724 0.70869-1.4503 1.0625-2.1875-0.67933-41.416-13.829-77.9-15.162-116.91z" fill="#78540a"/>
   <path d="m385.91 524.05c-1.3469 2.7256-2.7202 5.4759-4 8.125-3.0152 39.542 10.055 83.654 19.434 110.42 0.66661-1.3919 1.3302-2.7898 2-4.1875-3.2103-36.596-15.351-76.161-17.434-114.36z" fill="#78540a"/>
   <path d="m372.38 553.41c-0.28914 0.73744-0.56234 1.4826-0.84375 2.2188-7.5497 42.716 9.2627 75.497 21.906 103.47 0.34957-0.73257 0.67985-1.389 1.0312-2.125-5.8779-37.077-21.424-59.71-22.094-103.56z" fill="#78540a"/>
   <path d="m365.75 572.31c-0.92977 3.0034-1.8199 6.0009-2.625 8.9688-5.1626 42.622 10.731 68.437 23.125 92.938l1.1875-2.5c-6.0765-31.692-24.511-53.243-21.688-99.406z" fill="#78540a"/>
   <path d="m358.47 601.69c-1.5394 8.355-2.583 16.482-3.1875 24.344 0.97514 29.285 12.526 48.765 22.781 65.469 0.35444-0.75403 0.70322-1.5181 1.0625-2.2812-7.8642-23.213-22.712-40.577-20.656-87.531z" fill="#78540a"/>
   <path d="m456.16 400.73c-0.14808 0.28072-0.31955 0.56128-0.46875 0.84375 15.556 28.793 15.438 53.158 12.215 99.205 0.48141-1.2433 0.92689-2.4788 1.375-3.7188 9.3259-55.614 6.8103-71.775-13.122-96.33z" fill="#78540a"/>
   <path d="m464.94 385.13c-0.11297 0.22283-0.19829 0.43153-0.3125 0.65625 11.704 21.746 15.543 38.857 16.202 64.799 0.70072-11.92-0.94203-28.063-1.9546-39.772-3.6852-10.948-6.3295-15.369-13.935-25.682z" fill="#78540a"/>
   <path d="m354.66 642.72c8e-3 2.6187 0.0471 5.2155 0.15625 7.75 3.619 19.744 7.6206 39.526 17.906 52.5 1.2461-2.6778 2.4856-5.3578 3.8125-8.1875-12.62-12.567-16.387-32.526-21.875-52.062z" fill="#78540a"/>
  </g>
  <g transform="translate(21.075 2816.6)">
   <path d="m370 708.79c28.433-61.519 83.816-173.78 96.429-204.29 20.825-50.373 18.793-96.016 10.364-142.84-12.584 30.668-72.171 120.93-100.6 182.45-29.854 68.804-25.512 133.42-6.1891 164.68z" fill="url(#a)"/>
   <path d="m408.04 483.28c-0.40901 0.77359-0.81105 1.5396-1.2188 2.3125 2.9276 35.42 9.1539 75.995 15.925 112.35 0.18958-0.39519 0.40453-0.79302 0.59375-1.1875 0.41156-43.127-6.3816-82.448-15.3-113.47z" fill="#78540a"/>
   <path d="m421.08 460.57c-0.42848 0.79704-0.85231 1.5762-1.2812 2.375 5.7147 36.81 10.5 75.302 11.327 117.56 0.26397-0.55169 0.51858-1.1071 0.78125-1.6562 3.2925-43.278 0.39662-85.679-10.827-118.27z" fill="#78540a"/>
   <path d="m429.03 447.04c-0.15515 0.28729-0.31338 0.58725-0.46875 0.875 7.716 32.724 14.58 65.883 12.937 110.74 1.0065-2.1184 1.9675-4.1081 2.9375-6.1562 7.6856-44.746-2.5156-75.818-15.406-105.46z" fill="#78540a"/>
   <path d="m439.47 429.23c-0.21125 0.39137-0.41286 0.7946-0.625 1.1875 7.6122 35.801 16.841 58.488 16.282 99.33 0.40309-0.86892 0.73604-1.6269 1.125-2.4688 5.99-46.729-5.4764-70.98-16.782-98.049z" fill="#78540a"/>
   <path d="m447.8 415.12-0.25 0.46875c12.146 33.405 14.907 55.505 15.329 97.158 0.76747-1.7313 1.428-3.2418 2.0625-4.7188 4.8738-47.93-4.7054-69.448-17.141-92.908z" fill="#78540a"/>
   <path d="m396.4 504.37c-0.0318 0.0618-0.062 0.12575-0.0937 0.1875-6.8718 28.094 3.9839 83.304 14.193 118.91 0.35381-0.73724 0.70869-1.4503 1.0625-2.1875-0.67933-41.416-13.829-77.9-15.162-116.91z" fill="#78540a"/>
   <path d="m385.91 524.05c-1.3469 2.7256-2.7202 5.4759-4 8.125-3.0152 39.542 10.055 83.654 19.434 110.42 0.66661-1.3919 1.3302-2.7898 2-4.1875-3.2103-36.596-15.351-76.161-17.434-114.36z" fill="#78540a"/>
   <path d="m372.38 553.41c-0.28914 0.73744-0.56234 1.4826-0.84375 2.2188-7.5497 42.716 9.2627 75.497 21.906 103.47 0.34957-0.73257 0.67985-1.389 1.0312-2.125-5.8779-37.077-21.424-59.71-22.094-103.56z" fill="#78540a"/>
   <path d="m365.75 572.31c-0.92977 3.0034-1.8199 6.0009-2.625 8.9688-5.1626 42.622 10.731 68.437 23.125 92.938l1.1875-2.5c-6.0765-31.692-24.511-53.243-21.688-99.406z" fill="#78540a"/>
   <path d="m358.47 601.69c-1.5394 8.355-2.583 16.482-3.1875 24.344 0.97514 29.285 12.526 48.765 22.781 65.469 0.35444-0.75403 0.70322-1.5181 1.0625-2.2812-7.8642-23.213-22.712-40.577-20.656-87.531z" fill="#78540a"/>
   <path d="m456.16 400.73c-0.14808 0.28072-0.31955 0.56128-0.46875 0.84375 15.556 28.793 15.438 53.158 12.215 99.205 0.48141-1.2433 0.92689-2.4788 1.375-3.7188 9.3259-55.614 6.8103-71.775-13.122-96.33z" fill="#78540a"/>
   <path d="m464.94 385.13c-0.11297 0.22283-0.19829 0.43153-0.3125 0.65625 11.704 21.746 15.543 38.857 16.202 64.799 0.70072-11.92-0.94203-28.063-1.9546-39.772-3.6852-10.948-6.3295-15.369-13.935-25.682z" fill="#78540a"/>
   <path d="m354.66 642.72c8e-3 2.6187 0.0471 5.2155 0.15625 7.75 3.619 19.744 7.6206 39.526 17.906 52.5 1.2461-2.6778 2.4856-5.3578 3.8125-8.1875-12.62-12.567-16.387-32.526-21.875-52.062z" fill="#78540a"/>
  </g>
  <path d="m497.88 3289.8c-12.584 30.668-72.192 120.95-100.62 182.47-23.622 54.443-25.804 106.22-16.125 140.97h21.031c29.831-63.196 74.217-153.68 85.344-180.59 20.825-50.373 18.804-96.02 10.375-142.84z" fill="url(#e)"/>
  <path d="m429.12 3411.5c-0.40901 0.7736-0.81105 1.5396-1.2188 2.3125 2.9276 35.42 9.1539 75.995 15.925 112.35 0.18958-0.3952 0.40453-0.793 0.59375-1.1875 0.41156-43.127-6.3816-82.448-15.3-113.47z" fill="#78540a"/>
  <path d="m442.15 3388.8c-0.42848 0.797-0.85231 1.5761-1.2812 2.375 5.7147 36.81 10.5 75.302 11.327 117.56 0.26397-0.5517 0.51858-1.1071 0.78125-1.6562 3.2925-43.278 0.39662-85.679-10.827-118.27z" fill="#78540a"/>
  <path d="m450.11 3375.2c-0.15515 0.2872-0.31338 0.5872-0.46875 0.875 7.716 32.724 14.58 65.883 12.937 110.74 1.0065-2.1184 1.9675-4.1081 2.9375-6.1563 7.6856-44.746-2.5156-75.818-15.406-105.46z" fill="#78540a"/>
  <path d="m460.54 3357.4c-0.21125 0.3914-0.41286 0.7946-0.625 1.1875 7.6122 35.801 16.841 58.488 16.282 99.33 0.40309-0.8689 0.73604-1.6269 1.125-2.4687 5.99-46.729-5.4764-70.98-16.782-98.049z" fill="#78540a"/>
  <path d="m468.87 3343.3-0.25 0.4688c12.146 33.405 14.907 55.504 15.329 97.158 0.76747-1.7313 1.428-3.2418 2.0625-4.7187 4.8738-47.93-4.7054-69.448-17.141-92.908z" fill="#78540a"/>
  <path d="m417.48 3432.6c-0.0318 0.062-0.062 0.1257-0.0937 0.1875-6.8718 28.094 3.9839 83.304 14.193 118.91 0.35381-0.7373 0.70869-1.4504 1.0625-2.1875-0.67933-41.416-13.829-77.9-15.162-116.91z" fill="#78540a"/>
  <path d="m406.99 3452.2c-1.3469 2.7257-2.7202 5.4759-4 8.125-3.0152 39.542 10.055 83.654 19.434 110.42 0.66661-1.392 1.3302-2.7899 2-4.1875-3.2103-36.596-15.351-76.161-17.434-114.36z" fill="#78540a"/>
  <path d="m393.45 3481.6c-0.28914 0.7374-0.56234 1.4826-0.84375 2.2187-7.5497 42.716 9.2627 75.497 21.906 103.47 0.34957-0.7326 0.67985-1.3891 1.0312-2.125-5.8779-37.077-21.424-59.71-22.094-103.56z" fill="#78540a"/>
  <path d="m386.83 3500.5c-0.92977 3.0034-1.8199 6.0009-2.625 8.9688-5.1626 42.622 10.731 68.437 23.125 92.938l1.1875-2.5c-6.0765-31.692-24.511-53.243-21.688-99.406z" fill="#78540a"/>
  <path d="m379.53 3529.9c-1.5394 8.355-2.583 16.482-3.1875 24.344 0.85325 25.624 9.8116 43.743 18.906 59.062h3.4688c-8.0996-21.275-21.119-39.278-19.188-83.406z" fill="#78540a"/>
  <path d="m477.23 3328.9c-0.14808 0.2807-0.31955 0.5612-0.46875 0.8437 15.556 28.793 15.438 53.158 12.215 99.205 0.48141-1.2433 0.92689-2.4788 1.375-3.7188 9.3259-55.614 6.8103-71.775-13.122-96.33z" fill="#78540a"/>
  <path d="m486.02 3313.3c-0.11297 0.2228-0.19829 0.4315-0.3125 0.6562 11.704 21.746 15.543 38.857 16.202 64.799 0.70072-11.92-0.94203-28.063-1.9546-39.772-3.6852-10.948-6.3295-15.369-13.935-25.682z" fill="#78540a"/>
  <path d="m375.72 3570.9c8e-3 2.6186 0.0471 5.2155 0.15625 7.75 2.2079 12.045 4.5735 24.106 8.4062 34.625h5.9375c-7.0363-11.985-10.267-27.308-14.5-42.375z" fill="#78540a"/>
  <path d="m497.88 3402.8c-12.584 30.668-72.192 120.95-100.62 182.47-4.1077 9.4669-7.5433 18.83-10.406 28.062h69.312c14.29-29.927 26.293-55.47 31.344-67.687 20.825-50.373 18.804-96.02 10.375-142.84z" fill="url(#d)"/>
  <path d="m429.12 3524.4c-0.40901 0.7736-0.81105 1.5396-1.2188 2.3125 2.2517 27.243 6.4736 57.52 11.375 86.594h4.625c-1.7637-33.456-7.5891-63.888-14.781-88.906z" fill="#78540a"/>
  <path d="m442.16 3501.7c-0.42848 0.7971-0.85231 1.5762-1.2812 2.375 5.3375 34.38 9.8455 70.242 11.094 109.25h1.4688c2.5144-40.945-0.63487-80.706-11.281-111.62z" fill="#78540a"/>
  <path d="m450.11 3488.1c-0.15515 0.2872-0.31338 0.5872-0.46875 0.875 7.716 32.724 14.58 65.883 12.937 110.74 1.0065-2.1184 1.9675-4.1081 2.9375-6.1563 7.6856-44.746-2.5156-75.818-15.406-105.46z" fill="#78540a"/>
  <path d="m460.54 3470.3c-0.21125 0.3914-0.41286 0.7946-0.625 1.1875 7.6122 35.801 16.841 58.488 16.282 99.33 0.40309-0.8689 0.73604-1.6269 1.125-2.4687 5.99-46.729-5.4764-70.98-16.782-98.049z" fill="#78540a"/>
  <path d="m468.87 3456.2-0.25 0.4688c12.146 33.405 14.907 55.504 15.329 97.158 0.76747-1.7313 1.428-3.2417 2.0625-4.7187 4.8738-47.93-4.7054-69.448-17.141-92.908z" fill="#78540a"/>
  <path d="m417.47 3545.5c-0.0318 0.062-0.062 0.1257-0.0937 0.1874-4.0108 16.398-1.9454 42.043 2.4688 67.625h7.3125c-4.0208-22.743-8.9025-44.842-9.6875-67.812z" fill="#78540a"/>
  <path d="m407 3565.2c-1.3469 2.7257-2.7202 5.4759-4 8.125-0.99914 13.103-0.21995 26.691 1.5938 40h8.875c-2.9867-16.077-5.6009-32.21-6.4688-48.125z" fill="#78540a"/>
  <path d="m393.44 3594.5c-0.28914 0.7374-0.56234 1.4826-0.84375 2.2188-1.0066 5.6954-1.542 11.208-1.75 16.562h3.875c-0.71128-5.8446-1.1787-12.07-1.2812-18.781z" fill="#78540a"/>
  <path d="m477.23 3441.8c-0.14808 0.2807-0.31955 0.5612-0.46875 0.8437 15.556 28.793 15.438 53.158 12.215 99.205 0.48141-1.2433 0.92689-2.4788 1.375-3.7188 9.3259-55.614 6.8103-71.775-13.122-96.33z" fill="#78540a"/>
  <path d="m486.02 3426.2c-0.11297 0.2228-0.19829 0.4315-0.3125 0.6562 11.704 21.746 15.543 38.857 16.202 64.799 0.70072-11.92-0.94203-28.063-1.9546-39.772-3.6852-10.948-6.3295-15.369-13.935-25.682z" fill="#78540a"/>
  <path d="m497.88 3514.4c-7.4542 18.166-31.4 57.249-55.594 98.875h58.188c6.0761-33.742 3.3219-66.012-2.5938-98.875z" fill="url(#c)"/>
  <path d="m450.09 3599.8c-0.15515 0.2873-0.31338 0.5872-0.46875 0.875 0.98863 4.1929 1.9617 8.3942 2.9062 12.625h3.125c-1.7637-4.559-3.6259-9.0471-5.5625-13.5z" fill="#78540a"/>
  <path d="m460.53 3582c-0.21125 0.3913-0.41286 0.7946-0.625 1.1874 2.3374 10.993 4.813 20.7 7.125 30.125h5.5938c-3.3888-10.974-7.7596-20.935-12.094-31.312z" fill="#78540a"/>
  <path d="m468.88 3567.8-0.25 0.4687c6.0004 16.503 9.6999 30.264 11.969 44.969h4.9375c-2.9599-18.364-9.3061-31.571-16.656-45.437z" fill="#78540a"/>
  <path d="m477.25 3553.5c-0.14808 0.2806-0.31955 0.5612-0.46875 0.8437 10.298 19.062 13.7 36.213 13.906 58.969h4.4375c2.0073-28.163-3.1772-41.706-17.875-59.812z" fill="#78540a"/>
  <path d="m486.02 3537.9c-0.11297 0.2228-0.19829 0.4315-0.3125 0.6562 11.704 21.746 15.543 38.857 16.202 64.799 0.70072-11.92-0.94203-28.063-1.9546-39.772-3.6852-10.948-6.3295-15.369-13.935-25.682z" fill="#78540a"/>
 </g>
</svg>
